<svg width="" height="" viewBox="0 0 221 47" fill="none" xmlns="http://www.w3.org/2000/svg">
<path d="M0 23.0607C0 12.1898 0 6.75433 3.37716 3.37716C6.75433 0 12.1898 0 23.0607 0C33.9317 0 39.3671 0 42.7443 3.37716C46.1215 6.75433 46.1215 12.1898 46.1215 23.0607C46.1215 33.9317 46.1215 39.3671 42.7443 42.7443C39.3671 46.1215 33.9317 46.1215 23.0607 46.1215C12.1898 46.1215 6.75433 46.1215 3.37716 42.7443C0 39.3671 0 33.9317 0 23.0607Z" fill="#232B36"/>
<path d="M27.6731 29.9785C28.3099 29.9785 28.8378 30.4998 28.7113 31.1239C28.4877 32.2262 27.9447 33.248 27.1375 34.0551C26.0564 35.1363 24.59 35.7437 23.061 35.7437C21.5319 35.7437 20.0656 35.1363 18.9844 34.0551C18.1773 33.248 17.6342 32.2262 17.4107 31.1239C17.2841 30.4998 17.812 29.9785 18.4488 29.9785H27.6731Z" fill="#2DF8BB"/>
<path d="M30.0975 20.4967C29.4823 20.6615 29.1056 21.305 29.4175 21.8602C29.7458 22.4446 30.1999 22.9546 30.7523 23.3504C31.6196 23.9719 32.6756 24.2735 33.7404 24.2036C34.8051 24.1339 35.8127 23.6971 36.5915 22.9677C37.3704 22.2383 37.8721 21.2613 38.0113 20.2034C38.1506 19.1455 37.9189 18.072 37.3554 17.1658C36.7919 16.2598 35.9316 15.5771 34.9212 15.234C33.9108 14.891 32.8128 14.909 31.8141 15.2849C31.1781 15.5243 30.6076 15.8993 30.1392 16.3788C29.6943 16.8343 29.8915 17.5535 30.443 17.8718L31.028 18.2096C31.9175 18.7233 31.7422 20.056 30.7499 20.3219L30.0975 20.4967Z" fill="#2DF8BB"/>
<path d="M16.0249 20.4967C16.64 20.6615 17.0167 21.305 16.7048 21.8602C16.3766 22.4446 15.9225 22.9546 15.3702 23.3504C14.5029 23.9719 13.4468 24.2735 12.3821 24.2036C11.3173 24.1339 10.3097 23.6971 9.53086 22.9677C8.75207 22.2383 8.25027 21.2613 8.111 20.2034C7.97172 19.1455 8.20357 18.072 8.76704 17.1658C9.33051 16.2598 10.1907 15.5771 11.2012 15.234C12.2116 14.891 13.3097 14.909 14.3084 15.2849C14.9443 15.5243 15.5149 15.8993 15.9833 16.3788C16.4282 16.8343 16.2308 17.5535 15.6793 17.8718L15.0944 18.2096C14.2048 18.7233 14.3803 20.056 15.3725 20.3219L16.0249 20.4967Z" fill="#2DF8BB"/>
<path d="M71.2402 34.2971L69.9824 29.4947H64.5225L63.2933 34.2971H58.9482L64.351 14.3442H70.4112L75.8139 34.2971H71.2402ZM67.3811 18.4891H67.1524L65.2086 26.0358H69.3249L67.3811 18.4891Z" fill="#E4E4E7"/>
<path d="M78.989 31.0097H83.5055V16.4309H78.989V13.1436H87.7363V31.0097H92.2528V34.2971H78.989V31.0097Z" fill="#E4E4E7"/>
<path d="M105.004 34.2971C103.48 34.2971 102.346 33.8969 101.602 33.0965C100.859 32.2961 100.488 31.2765 100.488 30.0378V22.8342H96.4856V19.5468H99.0869C99.7158 19.5468 100.164 19.4229 100.43 19.1752C100.697 18.9274 100.831 18.4701 100.831 17.8031V14.3442H104.718V19.5468H110.464V22.8342H104.718V31.0097H110.464V34.2971H105.004Z" fill="#E4E4E7"/>
<path d="M122.501 34.6401C120.023 34.6401 118.146 33.9541 116.869 32.582C115.592 31.2098 114.954 29.3422 114.954 26.9791C114.954 25.7785 115.116 24.7018 115.44 23.7489C115.783 22.777 116.259 21.9575 116.869 21.2905C117.498 20.6045 118.251 20.0899 119.128 19.7469C120.023 19.3848 121.024 19.2038 122.129 19.2038C123.234 19.2038 124.225 19.3848 125.102 19.7469C125.979 20.0899 126.722 20.5854 127.332 21.2334C127.942 21.8813 128.409 22.6722 128.732 23.606C129.076 24.5207 129.247 25.5498 129.247 26.6933V27.951H119.156V28.2083C119.156 29.1612 119.452 29.933 120.042 30.5238C120.633 31.0955 121.5 31.3813 122.644 31.3813C123.52 31.3813 124.273 31.2194 124.902 30.8954C125.531 30.5524 126.074 30.1045 126.531 29.5519L128.818 32.0388C128.247 32.7439 127.446 33.3538 126.417 33.8683C125.388 34.3829 124.082 34.6401 122.501 34.6401ZM122.158 22.2339C121.243 22.2339 120.509 22.5197 119.957 23.0914C119.423 23.6441 119.156 24.3969 119.156 25.3497V25.5784H125.102V25.3497C125.102 24.3778 124.835 23.6155 124.302 23.0629C123.787 22.5102 123.072 22.2339 122.158 22.2339Z" fill="#E4E4E7"/>
<path d="M133.88 31.0097H137.282V22.8342H133.88V19.5468H141.512V23.7203H141.712C141.846 23.1867 142.027 22.6722 142.256 22.1767C142.503 21.6621 142.808 21.2143 143.17 20.8332C143.552 20.433 144.009 20.1185 144.542 19.8898C145.076 19.6611 145.705 19.5468 146.429 19.5468H147.83V23.4345H144.685C143.637 23.4345 142.846 23.7489 142.313 24.3778C141.779 24.9876 141.512 25.7404 141.512 26.6361V31.0097H146.372V34.2971H133.88V31.0097Z" fill="#E4E4E7"/>
<path d="M151.691 13.1436H155.922V22.2339H156.122C156.484 21.3572 157.008 20.6331 157.694 20.0613C158.38 19.4896 159.314 19.2038 160.495 19.2038C161.315 19.2038 162.058 19.3562 162.725 19.6611C163.411 19.9661 163.992 20.433 164.469 21.0618C164.964 21.6907 165.346 22.4911 165.612 23.4631C165.898 24.435 166.041 25.5879 166.041 26.9219C166.041 28.256 165.898 29.4089 165.612 30.3808C165.346 31.3528 164.964 32.1532 164.469 32.7821C163.992 33.4109 163.411 33.8778 162.725 34.1828C162.058 34.4877 161.315 34.6401 160.495 34.6401C159.314 34.6401 158.38 34.3638 157.694 33.8111C157.008 33.2394 156.484 32.5057 156.122 31.61H155.922V34.2971H151.691V13.1436ZM158.666 31.3528C159.619 31.3528 160.353 31.0669 160.867 30.4952C161.382 29.9044 161.639 29.0945 161.639 28.0654V25.7785C161.639 24.7494 161.382 23.949 160.867 23.3773C160.353 22.7865 159.619 22.4911 158.666 22.4911C157.923 22.4911 157.275 22.6722 156.722 23.0343C156.189 23.3964 155.922 23.9681 155.922 24.7494V29.0945C155.922 29.8758 156.189 30.4475 156.722 30.8096C157.275 31.1717 157.923 31.3528 158.666 31.3528Z" fill="#E4E4E7"/>
<path d="M176.82 34.6401C175.677 34.6401 174.647 34.4686 173.733 34.1256C172.818 33.7635 172.037 33.249 171.389 32.582C170.76 31.915 170.274 31.105 169.931 30.1522C169.588 29.1993 169.416 28.1226 169.416 26.9219C169.416 25.7213 169.588 24.6446 169.931 23.6917C170.274 22.7389 170.76 21.9289 171.389 21.2619C172.037 20.5949 172.818 20.0899 173.733 19.7469C174.647 19.3848 175.677 19.2038 176.82 19.2038C177.963 19.2038 178.993 19.3848 179.907 19.7469C180.822 20.0899 181.594 20.5949 182.223 21.2619C182.871 21.9289 183.366 22.7389 183.709 23.6917C184.052 24.6446 184.224 25.7213 184.224 26.9219C184.224 28.1226 184.052 29.1993 183.709 30.1522C183.366 31.105 182.871 31.915 182.223 32.582C181.594 33.249 180.822 33.7635 179.907 34.1256C178.993 34.4686 177.963 34.6401 176.82 34.6401ZM176.82 31.4957C177.773 31.4957 178.516 31.2003 179.05 30.6095C179.583 30.0188 179.85 29.1802 179.85 28.094V25.7499C179.85 24.6637 179.583 23.8251 179.05 23.2344C178.516 22.6436 177.773 22.3482 176.82 22.3482C175.867 22.3482 175.124 22.6436 174.59 23.2344C174.057 23.8251 173.79 24.6637 173.79 25.7499V28.094C173.79 29.1802 174.057 30.0188 174.59 30.6095C175.124 31.2003 175.867 31.4957 176.82 31.4957Z" fill="#E4E4E7"/>
<path d="M188.342 34.2971V19.5468H192.573V22.2339H192.744C192.916 21.8146 193.126 21.4239 193.373 21.0618C193.621 20.6998 193.916 20.3853 194.259 20.1185C194.622 19.8327 195.031 19.6135 195.489 19.461C195.965 19.2895 196.499 19.2038 197.089 19.2038C197.795 19.2038 198.443 19.3276 199.033 19.5754C199.624 19.8041 200.129 20.1566 200.548 20.6331C200.968 21.1095 201.292 21.6907 201.52 22.3768C201.768 23.0629 201.892 23.8537 201.892 24.7494V34.2971H197.661V25.3211C197.661 23.4154 196.832 22.4626 195.174 22.4626C194.85 22.4626 194.526 22.5102 194.202 22.6055C193.897 22.6817 193.621 22.8151 193.373 23.0057C193.126 23.1772 192.925 23.3964 192.773 23.6632C192.64 23.93 192.573 24.2444 192.573 24.6065V34.2971H188.342Z" fill="#E4E4E7"/>
<path d="M213.7 34.6401C211.222 34.6401 209.345 33.9541 208.068 32.582C206.792 31.2098 206.153 29.3422 206.153 26.9791C206.153 25.7785 206.315 24.7018 206.639 23.7489C206.982 22.777 207.459 21.9575 208.068 21.2905C208.697 20.6045 209.45 20.0899 210.327 19.7469C211.222 19.3848 212.223 19.2038 213.328 19.2038C214.434 19.2038 215.425 19.3848 216.301 19.7469C217.178 20.0899 217.921 20.5854 218.531 21.2334C219.141 21.8813 219.608 22.6722 219.932 23.606C220.275 24.5207 220.446 25.5498 220.446 26.6933V27.951H210.355V28.2083C210.355 29.1612 210.651 29.933 211.241 30.5238C211.832 31.0955 212.699 31.3813 213.843 31.3813C214.719 31.3813 215.472 31.2194 216.101 30.8954C216.73 30.5524 217.273 30.1045 217.73 29.5519L220.017 32.0388C219.446 32.7439 218.645 33.3538 217.616 33.8683C216.587 34.3829 215.282 34.6401 213.7 34.6401ZM213.357 22.2339C212.442 22.2339 211.708 22.5197 211.156 23.0914C210.622 23.6441 210.355 24.3969 210.355 25.3497V25.5784H216.301V25.3497C216.301 24.3778 216.034 23.6155 215.501 23.0629C214.986 22.5102 214.272 22.2339 213.357 22.2339Z" fill="#E4E4E7"/>
</svg>
