<svg width="24" height="24" viewBox="0 0 24 24" fill="none" xmlns="http://www.w3.org/2000/svg">
<path d="M5.7936 12.5818L12.582 5.79343C13.2572 5.11825 14.1729 4.73893 15.1278 4.73893C16.0827 4.73893 16.9984 5.11825 17.6736 5.79343C18.3488 6.46862 18.7281 7.38437 18.7281 8.33923C18.7281 9.29409 18.3488 10.2098 17.6736 10.885L9.612 18.9454C9.27252 19.2733 8.81783 19.4547 8.34588 19.4506C7.87392 19.4465 7.42246 19.2572 7.08873 18.9235C6.75499 18.5898 6.56569 18.1383 6.56159 17.6664C6.55749 17.1944 6.73892 16.7397 7.0668 16.4002L14.2788 9.18823C14.3915 9.07573 14.4548 8.92308 14.4549 8.76386C14.455 8.60464 14.3919 8.4519 14.2794 8.33923C14.1669 8.22657 14.0142 8.16321 13.855 8.1631C13.6958 8.16299 13.5431 8.22613 13.4304 8.33863L6.2184 15.5506C5.65978 16.114 5.34707 16.8757 5.34869 17.6691C5.35032 18.4625 5.66615 19.2229 6.22707 19.784C6.78799 20.3451 7.54833 20.6611 8.3417 20.6629C9.13507 20.6648 9.89687 20.3523 10.4604 19.7938L18.522 11.7334C19.4224 10.8332 19.9282 9.61224 19.9283 8.33906C19.9285 7.06587 19.4228 5.84479 18.5226 4.94443C17.6224 4.04408 16.4014 3.5382 15.1282 3.53809C13.855 3.53797 12.634 4.04364 11.7336 4.94383L4.944 11.7334C4.83471 11.8466 4.77423 11.9982 4.7756 12.1555C4.77696 12.3128 4.84006 12.4633 4.95131 12.5745C5.06255 12.6858 5.21304 12.7489 5.37036 12.7502C5.52768 12.7516 5.68044 12.6911 5.7936 12.5818Z" fill="#0073E6"/>
</svg>
