<svg width="24" height="24" viewBox="0 0 24 24" fill="none" xmlns="http://www.w3.org/2000/svg">
<path d="M14.706 4.31252H9.29401C8.63978 4.31226 7.9919 4.44091 7.3874 4.69113C6.78291 4.94134 6.23363 5.30821 5.77097 5.77078C5.30831 6.23335 4.94133 6.78254 4.691 7.38699C4.44066 7.99144 4.31188 8.63929 4.31201 9.29352V14.7055C4.31175 15.3598 4.44043 16.0078 4.69071 16.6124C4.94098 17.2169 5.30795 17.7662 5.77062 18.2289C6.23329 18.6916 6.78261 19.0586 7.38717 19.3088C7.99174 19.5591 8.63969 19.6878 9.29401 19.6875H14.706C15.3603 19.6878 16.0083 19.5591 16.6129 19.3088C17.2174 19.0586 17.7667 18.6916 18.2294 18.2289C18.6921 17.7662 19.059 17.2169 19.3093 16.6124C19.5596 16.0078 19.6883 15.3598 19.688 14.7055V9.29352C19.6883 8.6392 19.5596 7.99125 19.3093 7.38668C19.059 6.78212 18.6921 6.23281 18.2294 5.77013C17.7667 5.30746 17.2174 4.9405 16.6129 4.69022C16.0083 4.43994 15.3603 4.31126 14.706 4.31152V4.31252Z" stroke="#333333" stroke-width="1.5"/>
<path d="M19.606 15.5871H21.225C21.4968 15.5871 21.7576 15.4791 21.9498 15.2869C22.142 15.0947 22.25 14.834 22.25 14.5621V9.43711C22.25 9.16526 22.142 8.90455 21.9498 8.71233C21.7576 8.5201 21.4968 8.41211 21.225 8.41211H19.605M4.395 15.5871H2.775C2.6404 15.5871 2.50711 15.5606 2.38275 15.5091C2.25839 15.4576 2.1454 15.3821 2.05022 15.2869C1.95504 15.1917 1.87953 15.0787 1.82802 14.9544C1.77651 14.83 1.75 14.6967 1.75 14.5621V9.43711C1.75 9.16526 1.85799 8.90455 2.05022 8.71233C2.24244 8.5201 2.50315 8.41211 2.775 8.41211H4.395" stroke="#333333" stroke-width="1.5"/>
<path d="M2.76501 8.4125V4.3125M21.225 8.4125L21.215 4.3125M8.91501 8.7625V11.4605M15.065 8.7625V11.4605M9.94001 15.5875H14.04" stroke="#333333" stroke-width="1.5" stroke-linecap="round" stroke-linejoin="round"/>
</svg>
