<svg width="28" height="28" viewBox="0 0 28 28" fill="none" xmlns="http://www.w3.org/2000/svg">
<path d="M25.6667 15.7243V21C25.6667 21.9283 25.298 22.8185 24.6416 23.4749C23.9852 24.1313 23.095 24.5 22.1667 24.5H5.83337C4.90512 24.5 4.01488 24.1313 3.3585 23.4749C2.70212 22.8185 2.33337 21.9283 2.33337 21V15.7243L2.97854 16.0475C6.39796 17.7698 10.1734 18.6667 14.0021 18.6663C17.8307 18.6659 21.606 17.7682 25.025 16.0452L25.6667 15.7243ZM16.3334 2.33334C17.2616 2.33334 18.1519 2.70209 18.8082 3.35847C19.4646 4.01485 19.8334 4.90509 19.8334 5.83334V7.00001H22.1667C23.095 7.00001 23.9852 7.36876 24.6416 8.02514C25.298 8.68151 25.6667 9.57175 25.6667 10.5V13.1157L23.9785 13.9603C20.9581 15.483 17.6292 16.2942 14.2469 16.3318C10.8645 16.3694 7.51845 15.6324 4.46487 14.1773L3.71004 13.804L2.33337 13.1157V10.5C2.33337 9.57175 2.70212 8.68151 3.3585 8.02514C4.01488 7.36876 4.90512 7.00001 5.83337 7.00001H8.16671V5.83334C8.16671 4.90509 8.53546 4.01485 9.19183 3.35847C9.84821 2.70209 10.7384 2.33334 11.6667 2.33334H16.3334ZM14 11.6667C13.6906 11.6667 13.3939 11.7896 13.1751 12.0084C12.9563 12.2272 12.8334 12.5239 12.8334 12.8333C12.8326 12.9866 12.862 13.1384 12.9199 13.2803C12.9779 13.4221 13.0632 13.5511 13.171 13.66C13.2788 13.7689 13.4069 13.8555 13.5482 13.9148C13.6894 13.9741 13.841 14.0051 13.9942 14.0058C14.1474 14.0066 14.2993 13.9772 14.4411 13.9193C14.583 13.8613 14.712 13.7761 14.8209 13.6683C14.9298 13.5605 15.0163 13.4323 15.0757 13.291C15.135 13.1498 15.1659 12.9982 15.1667 12.845C15.1667 12.1893 14.644 11.6667 14 11.6667ZM16.3334 4.66668H11.6667C11.3573 4.66668 11.0605 4.78959 10.8417 5.00839C10.623 5.22718 10.5 5.52392 10.5 5.83334V7.00001H17.5V5.83334C17.5 5.52392 17.3771 5.22718 17.1583 5.00839C16.9395 4.78959 16.6428 4.66668 16.3334 4.66668Z" fill="white"/>
</svg>
