<svg width="16" height="16" viewBox="0 0 16 16" fill="none" xmlns="http://www.w3.org/2000/svg">
<path d="M6.00065 0.667969V2.0013H10.0007V0.667969H11.334V2.0013H14.0007C14.3689 2.0013 14.6673 2.29978 14.6673 2.66797V13.3346C14.6673 13.7028 14.3689 14.0013 14.0007 14.0013H2.00065C1.63246 14.0013 1.33398 13.7028 1.33398 13.3346V2.66797C1.33398 2.29978 1.63246 2.0013 2.00065 2.0013H4.66732V0.667969H6.00065ZM13.334 7.33463H2.66732V12.668H13.334V7.33463ZM4.66732 3.33464H2.66732V6.0013H13.334V3.33464H11.334V4.66797H10.0007V3.33464H6.00065V4.66797H4.66732V3.33464Z" fill="#080808" fill-opacity="0.44"/>
</svg>
