<svg width="31" height="31" viewBox="0 0 31 31" fill="none" xmlns="http://www.w3.org/2000/svg">
<path d="M31 15.5C31 24.0604 24.0604 31 15.5 31C6.93959 31 0 24.0604 0 15.5C0 6.93959 6.93959 0 15.5 0C24.0604 0 31 6.93959 31 15.5ZM3.99407 15.5C3.99407 21.8545 9.14545 27.0059 15.5 27.0059C21.8545 27.0059 27.0059 21.8545 27.0059 15.5C27.0059 9.14545 21.8545 3.99407 15.5 3.99407C9.14545 3.99407 3.99407 9.14545 3.99407 15.5Z" fill="#F8F8FA"/>
<circle cx="15.5" cy="15.5" r="15.5" fill="url(#paint0_linear_66_5771)"/>
<path d="M19.4046 17.6172L17.9465 17.4507C17.775 17.4306 17.6013 17.4495 17.4382 17.5062C17.2751 17.5629 17.127 17.6558 17.005 17.7779L15.9487 18.8342C14.3192 18.0052 12.9946 16.6806 12.1656 15.0511L13.2276 13.989C13.4745 13.7422 13.595 13.3977 13.5548 13.0476L13.3884 11.6009C13.3559 11.3208 13.2216 11.0624 13.0109 10.875C12.8002 10.6876 12.5279 10.5843 12.2459 10.5848H11.2528C10.6041 10.5848 10.0645 11.1244 10.1046 11.7731C10.4089 16.6757 14.3298 20.5909 19.2267 20.8952C19.8754 20.9353 20.415 20.3957 20.415 19.747V18.7539C20.4208 18.174 19.9845 17.6861 19.4046 17.6172Z" fill="white"/>
<defs>
<linearGradient id="paint0_linear_66_5771" x1="31.3982" y1="8.20587" x2="-1.95355" y2="8.79236" gradientUnits="userSpaceOnUse">
<stop stop-color="#6FA9E2"/>
<stop offset="1" stop-color="#B3387F"/>
</linearGradient>
</defs>
</svg>
