<svg width="91" height="91" viewBox="0 0 91 91" fill="none" xmlns="http://www.w3.org/2000/svg">
<circle cx="45.9" cy="45.5996" r="45" fill="#F4F7FE"/>
<g clip-path="url(#clip0_322_12640)">
<path d="M58.5788 42.2198C57.4058 36.2685 52.179 31.8008 45.9 31.8008C40.9148 31.8008 36.585 34.6298 34.4288 38.7698C29.2365 39.3218 25.2 43.7205 25.2 49.0508C25.2 54.7605 29.8403 59.4008 35.55 59.4008H57.975C62.736 59.4008 66.6 55.5368 66.6 50.7758C66.6 46.2218 63.0638 42.5303 58.5788 42.2198ZM57.975 55.9508H35.55C31.7378 55.9508 28.65 52.863 28.65 49.0508C28.65 45.5145 31.2893 42.5648 34.791 42.2025L36.6368 42.0128L37.4993 40.374C39.138 37.2173 42.3465 35.2508 45.9 35.2508C50.4195 35.2508 54.318 38.4593 55.1978 42.8925L55.7153 45.48L58.3545 45.6698C61.0455 45.8423 63.15 48.102 63.15 50.7758C63.15 53.622 60.8213 55.9508 57.975 55.9508ZM42.45 49.3613L38.8448 45.756L36.4125 48.1883L42.45 54.2258L52.8173 43.8585L50.385 41.4263L42.45 49.3613Z" fill="#B3387F"/>
</g>
<defs>
<clipPath id="clip0_322_12640">
<rect width="41.4" height="41.4" fill="white" transform="translate(25.2 24.9004)"/>
</clipPath>
</defs>
</svg>
