<svg width="32" height="32" viewBox="0 0 32 32" fill="none" xmlns="http://www.w3.org/2000/svg">
<rect width="32" height="32" rx="16" fill="#C32782" fill-opacity="0.2"/>
<path d="M16 20.7697L11.2813 16.0523L12.2253 15.0923L15.3333 18.2003V6.66699H16.6667V18.2003L19.7733 15.0937L20.7187 16.0523L16 20.7697ZM8.82134 25.3337C8.20712 25.3337 7.69467 25.1283 7.284 24.7177C6.87334 24.307 6.66756 23.7941 6.66667 23.179V19.9483H8.00001V23.179C8.00001 23.3843 8.08534 23.5728 8.256 23.7443C8.42667 23.9159 8.61467 24.0012 8.82 24.0003H23.18C23.3844 24.0003 23.5724 23.915 23.744 23.7443C23.9156 23.5737 24.0009 23.3852 24 23.179V19.9483H25.3333V23.179C25.3333 23.7932 25.128 24.3057 24.7173 24.7163C24.3067 25.127 23.7938 25.3328 23.1787 25.3337H8.82134Z" fill="#C32782"/>
</svg>
