<svg width="16" height="16" viewBox="0 0 16 16" fill="none" xmlns="http://www.w3.org/2000/svg">
<path d="M12.0001 6.66614C12.0001 6.48933 11.9298 6.31976 11.8048 6.19474C11.6798 6.06971 11.5102 5.99947 11.3334 5.99947H3.60672L5.14005 4.47281C5.26559 4.34727 5.33611 4.17701 5.33611 3.99947C5.33611 3.82194 5.26559 3.65168 5.14005 3.52614C5.01452 3.4006 4.84425 3.33008 4.66672 3.33008C4.48918 3.33008 4.31892 3.4006 4.19339 3.52614L1.52672 6.19281C1.43421 6.28656 1.37155 6.4056 1.34663 6.53493C1.32172 6.66426 1.33567 6.79807 1.38672 6.91947C1.43673 7.04122 1.52166 7.14544 1.63081 7.21899C1.73996 7.29255 1.86844 7.33215 2.00005 7.33281H11.3334C11.5102 7.33281 11.6798 7.26257 11.8048 7.13754C11.9298 7.01252 12.0001 6.84295 12.0001 6.66614ZM14.6134 9.07947C14.5634 8.95773 14.4784 8.85351 14.3693 8.77995C14.2601 8.7064 14.1317 8.6668 14.0001 8.66614H4.66672C4.48991 8.66614 4.32034 8.73638 4.19531 8.8614C4.07029 8.98643 4.00005 9.15599 4.00005 9.33281C4.00005 9.50962 4.07029 9.67919 4.19531 9.80421C4.32034 9.92923 4.48991 9.99947 4.66672 9.99947H12.3934L10.8601 11.5261C10.7976 11.5881 10.748 11.6618 10.7141 11.7431C10.6803 11.8243 10.6629 11.9115 10.6629 11.9995C10.6629 12.0875 10.6803 12.1746 10.7141 12.2559C10.748 12.3371 10.7976 12.4108 10.8601 12.4728C10.922 12.5353 10.9958 12.5849 11.077 12.6187C11.1582 12.6526 11.2454 12.67 11.3334 12.67C11.4214 12.67 11.5085 12.6526 11.5898 12.6187C11.671 12.5849 11.7447 12.5353 11.8067 12.4728L14.4734 9.80614C14.5659 9.71239 14.6286 9.59334 14.6535 9.46402C14.6784 9.33469 14.6644 9.20088 14.6134 9.07947Z" fill="#333333"/>
</svg>
