<svg width="24" height="24" viewBox="0 0 24 24" fill="none" xmlns="http://www.w3.org/2000/svg">
<path d="M7.5 7.68744C7.5 7.21869 7.5675 6.14056 9.07219 4.90025C9.96562 4.16385 11.0386 3.95056 12 3.93744C12.878 3.92666 13.6627 4.07525 14.1319 4.304C14.9339 4.69681 16.5 5.65306 16.5 7.68744C16.5 9.82822 15.1322 10.7985 13.5773 11.8678C12.0225 12.937 11.625 13.6106 11.625 14.8124" stroke="#333333" stroke-width="1.875" stroke-miterlimit="10" stroke-linecap="square"/>
<path d="M12.7734 17.25H10.4766C10.386 17.25 10.3125 17.3235 10.3125 17.4141V19.7109C10.3125 19.8015 10.386 19.875 10.4766 19.875H12.7734C12.864 19.875 12.9375 19.8015 12.9375 19.7109V17.4141C12.9375 17.3235 12.864 17.25 12.7734 17.25Z" fill="#333333"/>
</svg>
