<svg width="31" height="31" viewBox="0 0 31 31" fill="none" xmlns="http://www.w3.org/2000/svg">
<path d="M31 15.5C31 24.0604 24.0604 31 15.5 31C6.93959 31 0 24.0604 0 15.5C0 6.93959 6.93959 0 15.5 0C24.0604 0 31 6.93959 31 15.5ZM3.99407 15.5C3.99407 21.8545 9.14545 27.0059 15.5 27.0059C21.8545 27.0059 27.0059 21.8545 27.0059 15.5C27.0059 9.14545 21.8545 3.99407 15.5 3.99407C9.14545 3.99407 3.99407 9.14545 3.99407 15.5Z" fill="#F8F8FA"/>
<circle cx="15.5" cy="15.5" r="15.5" fill="url(#paint0_linear_66_5823)"/>
<path d="M21.2583 10.875L16.3083 8.01669C15.5 7.55002 14.5 7.55002 13.6833 8.01669L8.74168 10.875C7.93335 11.3417 7.43335 12.2084 7.43335 13.15V18.85C7.43335 19.7834 7.93335 20.65 8.74168 21.125L13.6917 23.9834C14.5 24.45 15.5 24.45 16.3167 23.9834L21.2667 21.125C22.075 20.6584 22.575 19.7917 22.575 18.85V13.15C22.5667 12.2084 22.0667 11.35 21.2583 10.875ZM14.375 12.4584C14.375 12.1167 14.6583 11.8334 15 11.8334C15.3417 11.8334 15.625 12.1167 15.625 12.4584V16.8334C15.625 17.175 15.3417 17.4584 15 17.4584C14.6583 17.4584 14.375 17.175 14.375 16.8334V12.4584ZM15.7667 19.8584C15.725 19.9584 15.6667 20.05 15.5917 20.1334C15.4333 20.2917 15.225 20.375 15 20.375C14.8917 20.375 14.7833 20.35 14.6833 20.3084C14.575 20.2667 14.4917 20.2084 14.4083 20.1334C14.3333 20.05 14.275 19.9584 14.225 19.8584C14.1833 19.7584 14.1667 19.65 14.1667 19.5417C14.1667 19.325 14.25 19.1084 14.4083 18.95C14.4917 18.875 14.575 18.8167 14.6833 18.775C14.9917 18.6417 15.3583 18.7167 15.5917 18.95C15.6667 19.0334 15.725 19.1167 15.7667 19.225C15.8083 19.325 15.8333 19.4334 15.8333 19.5417C15.8333 19.65 15.8083 19.7584 15.7667 19.8584Z" fill="white"/>
<defs>
<linearGradient id="paint0_linear_66_5823" x1="31.3982" y1="8.20587" x2="-1.95355" y2="8.79236" gradientUnits="userSpaceOnUse">
<stop stop-color="#6FA9E2"/>
<stop offset="1" stop-color="#B3387F"/>
</linearGradient>
</defs>
</svg>
