<svg width="67" height="67" viewBox="0 0 67 67" fill="none" xmlns="http://www.w3.org/2000/svg">
<g clip-path="url(#clip0_473_17786)">
<rect width="67" height="67" rx="33.5" fill="white"/>
<circle cx="33.5" cy="33.5" r="33.5" fill="#D9D9D9"/>
<g clip-path="url(#clip1_473_17786)">
<path d="M56.8189 55.3156C53.7837 52.027 50.1005 49.4026 46.0011 47.6077C41.9018 45.8127 37.4751 44.886 33 44.886C28.5249 44.886 24.0983 45.8127 19.9989 47.6077C15.8995 49.4026 12.2163 52.027 9.18112 55.3156C8.71099 55.8328 8.44862 56.5055 8.44446 57.2045V68.5378C8.45439 69.2827 8.75728 69.9937 9.28756 70.5169C9.81784 71.0401 10.5328 71.3334 11.2778 71.3334H54.7222C55.4737 71.3334 56.1944 71.0349 56.7257 70.5035C57.2571 69.9721 57.5556 69.2515 57.5556 68.5V57.1667C57.5422 56.4808 57.2805 55.8231 56.8189 55.3156Z" fill="#333333"/>
<path d="M33.0001 41.1112C40.3025 41.1112 46.2223 35.1914 46.2223 27.889C46.2223 20.5865 40.3025 14.6667 33.0001 14.6667C25.6976 14.6667 19.7778 20.5865 19.7778 27.889C19.7778 35.1914 25.6976 41.1112 33.0001 41.1112Z" fill="#333333"/>
</g>
</g>
<defs>
<clipPath id="clip0_473_17786">
<rect width="67" height="67" rx="33.5" fill="white"/>
</clipPath>
<clipPath id="clip1_473_17786">
<rect width="68" height="68" fill="white" transform="translate(-1 9)"/>
</clipPath>
</defs>
</svg>
