<svg width="68" height="26" viewBox="0 0 68 26" fill="none" xmlns="http://www.w3.org/2000/svg">
<path d="M5.36354 0.0684224C4.84905 -0.132357 4.2692 0.121961 4.06842 0.636458L0.79654 9.02066C0.595761 9.53515 0.850079 10.115 1.36458 10.3158C1.87907 10.5166 2.45892 10.2622 2.6597 9.74774L5.56804 2.29512L13.0207 5.20346C13.5352 5.40424 14.115 5.14992 14.3158 4.63542C14.5166 4.12093 14.2622 3.54108 13.7477 3.3403L5.36354 0.0684224ZM65.5025 25.6732C65.9085 26.0476 66.5412 26.0219 66.9156 25.6159C67.29 25.2099 67.2643 24.5773 66.8583 24.2029L65.5025 25.6732ZM4.08421 1.40166C4.36311 2.03755 4.64799 2.64732 4.9388 3.23196L6.7295 2.34123C6.45368 1.78674 6.18239 1.20619 5.91579 0.598338L4.08421 1.40166ZM6.92251 6.70374C7.71331 7.90286 8.54116 8.95935 9.40555 9.8882L10.8697 8.5257C10.0869 7.68463 9.32688 6.71679 8.59213 5.60266L6.92251 6.70374ZM12.492 12.5812C13.6572 13.3909 14.8671 14.0259 16.1159 14.5202L16.852 12.6606C15.7391 12.2201 14.6662 11.6566 13.6333 10.9388L12.492 12.5812ZM20.0377 15.6273C21.3418 15.8679 22.6743 16.0052 24.0282 16.0747L24.1307 14.0773C22.8431 14.0112 21.6001 13.8818 20.4006 13.6605L20.0377 15.6273ZM27.9877 16.1184C29.2722 16.0921 30.5795 16.036 31.8992 15.9761L31.8085 13.9782C30.4892 14.0381 29.2038 14.093 27.9466 14.1188L27.9877 16.1184ZM35.7731 15.8132C37.0427 15.7712 38.3246 15.7466 39.6192 15.7596L39.6393 13.7597C38.3068 13.7464 36.9946 13.7717 35.7069 13.8143L35.7731 15.8132ZM43.4366 15.9228C44.6825 16.0221 45.9378 16.1722 47.2015 16.3899L47.541 14.4189C46.2105 14.1897 44.8945 14.0326 43.5954 13.9291L43.4366 15.9228ZM50.885 17.2243C52.0674 17.5604 53.2574 17.9683 54.4541 18.4613L55.216 16.6121C53.9464 16.089 52.6844 15.6566 51.4318 15.3005L50.885 17.2243ZM57.849 20.0904C58.9166 20.6781 59.9901 21.3429 61.0688 22.0945L62.2122 20.4535C61.0765 19.6622 59.9433 18.9602 58.8134 18.3383L57.849 20.0904ZM64.0607 24.399C64.5404 24.8047 65.021 25.2291 65.5025 25.6732L66.8583 24.2029C66.3562 23.7398 65.8541 23.2964 65.3522 22.8719L64.0607 24.399Z" fill="url(#paint0_linear_473_16659)"/>
<defs>
<linearGradient id="paint0_linear_473_16659" x1="73.9762" y1="17.249" x2="64.5387" y2="35.9956" gradientUnits="userSpaceOnUse">
<stop stop-color="#00FFB0"/>
<stop offset="0.32" stop-color="#48D0FF"/>
<stop offset="0.58" stop-color="#5F5FC9"/>
<stop offset="0.98" stop-color="#C32782"/>
</linearGradient>
</defs>
</svg>
