<svg width="136" height="24" viewBox="0 0 136 24" fill="none" xmlns="http://www.w3.org/2000/svg">
<path d="M41.3506 1.04785C44.6702 1.04785 47.4421 2.04873 49.666 4.0505C51.8899 6.05226 53.0022 8.51979 53.0028 11.4531C53.0028 14.3866 51.8905 16.8542 49.666 18.8558C47.4415 20.8575 44.6697 21.8584 41.3506 21.8586H31.7383V1.04785H41.3506ZM41.3506 17.9341C43.4476 17.9341 45.153 17.3345 46.467 16.1355C47.7809 14.9365 48.4381 13.3757 48.4384 11.4531C48.4384 9.53117 47.7813 7.97041 46.467 6.7708C45.1527 5.57119 43.4472 4.97164 41.3506 4.97213H36.5099V17.9344L41.3506 17.9341Z" fill="white"/>
<path d="M66.0375 6.99414H70.4978V21.8589H66.0375V20.194C64.9538 21.5815 63.2365 22.2752 60.8857 22.275C58.9955 22.275 57.4339 21.73 56.2007 20.6399C54.9675 19.5499 54.3508 18.0436 54.3506 16.1211V6.99414H58.8116V15.6454C58.8116 16.637 59.1226 17.3952 59.7447 17.9199C60.3668 18.4447 61.1966 18.7073 62.2341 18.7077C63.3863 18.7077 64.3083 18.4005 65.0002 17.7862C65.6921 17.1719 66.0379 16.2502 66.0375 15.0213V6.99414Z" fill="white"/>
<path d="M77.3089 9.55131C77.7242 8.59986 78.4101 7.88633 79.3664 7.4107C80.3227 6.93508 81.3887 6.69727 82.5644 6.69727V10.9788C81.2046 10.8404 79.9887 11.0782 78.9167 11.6924C77.8447 12.3065 77.3085 13.3272 77.3082 14.7546V21.8598H72.8484V6.99447H77.3089V9.55131Z" fill="white"/>
<path d="M86.5405 16.0024C87.1396 17.8655 88.7645 18.797 91.4151 18.7969C93.1208 18.7969 94.4117 18.3016 95.2878 17.3109L98.8838 19.0948C97.1774 21.2158 94.6649 22.2761 91.3463 22.2757C88.488 22.2757 86.1944 21.5325 84.4657 20.046C82.7369 18.5596 81.8724 16.6866 81.8721 14.4268C81.8721 12.1876 82.7249 10.3196 84.4306 8.82275C86.1363 7.32594 88.326 6.57773 90.9996 6.57813C93.5349 6.57813 95.6267 7.33129 97.2751 8.83761C98.9236 10.3439 99.7477 12.207 99.7474 14.4268C99.7474 14.9224 99.6898 15.4476 99.5744 16.0024H86.5405ZM86.4707 13.0295H95.2878C95.0341 12.0187 94.5097 11.2656 93.7147 10.77C92.9197 10.2745 92.0149 10.0267 91.0003 10.0267C89.8025 10.0267 88.8113 10.2893 88.0268 10.8145C87.2423 11.3396 86.7236 12.078 86.4707 13.0295Z" fill="white"/>
<path d="M117.071 21.8586H111.884L105.591 15.1053V21.8586H101.132V1.04785H105.592V13.5599L111.539 6.9937H116.864L109.914 14.3376L117.071 21.8586Z" fill="white"/>
<path d="M127.063 10.6806H123.157V16.8646C123.157 17.3804 123.306 17.757 123.606 17.9945C123.905 18.2319 124.343 18.3657 124.92 18.3957C125.496 18.4251 126.211 18.4202 127.063 18.381V21.8594C123.998 22.1566 121.837 21.9089 120.581 21.1161C119.325 20.3234 118.697 18.906 118.696 16.864V10.6806H115.688V6.99407H118.696V3.99142L123.157 2.83203V6.99407H127.063V10.6806Z" fill="white"/>
<path d="M26.5148 7.92941L25.8791 12.0895L24.9396 18.2396C26.2013 16.6206 26.9741 14.7568 27.1881 12.8167C27.2362 12.3864 27.2561 11.9541 27.2477 11.5219C27.2228 10.2989 26.9755 9.08671 26.5148 7.92941ZM24.6828 18.1403C24.6765 18.1969 24.7078 18.213 24.7673 18.1915C24.7774 18.1872 24.7879 18.1836 24.7987 18.1807L24.6859 18.1295C24.6835 18.1326 24.6824 18.1363 24.6828 18.14V18.1403ZM20.3298 16.9906C20.4896 17.2356 20.455 17.4107 20.2233 17.5184C19.9667 17.6395 19.7129 17.766 19.4685 17.8953L19.6251 17.9061L24.4448 18.2077C24.479 18.1941 24.5013 18.1619 24.5043 18.1134C24.5057 18.0944 24.5121 18.076 24.5232 18.0595L19.6251 15.9296C19.857 16.2764 20.0912 16.6322 20.3298 16.9903V16.9906ZM10.8566 12.1193C11.5738 13.4979 12.6438 14.6997 14.0666 15.7247C14.2012 15.8243 14.3953 15.8836 14.5613 15.8C15.0498 15.5551 15.5383 15.3101 16.0329 15.0644L16.7844 14.6929L14.2348 13.5861L10.8566 12.1193ZM24.8026 18.181H24.7993L24.6866 18.1298L24.5238 18.0598L19.6258 15.9299L17.9598 15.2056L16.7854 14.694L14.2358 13.5873L10.8566 12.1193L9.48491 11.5215L6.87316 10.3852L0.806391 7.74902C-0.320658 10.4388 -0.264616 13.3901 0.963955 16.0469C2.19253 18.7036 4.50878 20.8822 7.47621 22.1721C10.4436 23.4621 13.8573 23.7743 17.0739 23.0499C20.2906 22.3255 23.088 20.6145 24.939 18.2395L24.8026 18.181Z" fill="url(#paint0_linear_36_5664)"/>
<path d="M26.516 7.92806C25.6031 5.63138 23.883 3.63524 21.5935 2.21559C19.3039 0.795937 16.558 0.0228902 13.7353 0.003311C10.9126 -0.0162682 8.15257 0.718587 5.83669 2.10629C3.5208 3.494 1.76347 5.46602 0.807617 7.74974L26.516 7.92806Z" fill="url(#paint1_linear_36_5664)"/>
<path d="M26.5158 7.92794C26.4258 8.01004 26.3678 7.98385 26.3428 7.84717C26.3414 7.83033 26.3327 7.81456 26.3183 7.80306C26.304 7.79156 26.2851 7.78518 26.2654 7.78522C26.1706 7.77932 26.078 7.75752 25.9929 7.72107C25.9539 7.70322 25.9088 7.698 25.8657 7.70636C25.4605 7.77772 25.0883 7.76933 24.7468 7.68017C24.7095 7.67061 24.6943 7.68135 24.7038 7.71342C24.7053 7.71747 24.7053 7.72181 24.7038 7.72585C24.7024 7.7299 24.6995 7.73347 24.6956 7.73608C24.6693 7.75742 24.6513 7.75389 24.6404 7.72534C24.639 7.72146 24.639 7.71731 24.6404 7.71342C24.6499 7.684 24.6374 7.66929 24.6029 7.66929C21.8764 7.67046 19.1698 7.67085 16.4831 7.67046C16.2962 7.67046 16.1275 7.63132 15.9422 7.63839C15.9223 7.63953 15.9023 7.63718 15.8836 7.63146C15.8648 7.62574 15.8476 7.61678 15.833 7.60514C15.7236 7.52304 15.6213 7.53157 15.5231 7.63015C15.4899 7.66458 15.4499 7.67046 15.4042 7.64795C15.3439 7.61723 15.2769 7.59766 15.2074 7.59049C15.1378 7.58332 15.0673 7.58871 15.0003 7.60631C14.9576 7.61712 14.9199 7.63914 14.8925 7.66929C14.8302 7.73706 14.7541 7.75016 14.6643 7.70857C14.6221 7.68872 14.5732 7.68202 14.526 7.68959C14.1789 7.73706 13.887 7.68233 13.6504 7.52539L26.5158 7.92794Z" fill="url(#paint2_linear_36_5664)"/>
<path d="M13.6503 7.52576C13.757 7.36175 13.7409 7.17465 13.6021 6.96445C13.0018 6.05224 12.4149 5.17858 11.8413 4.34346C11.6905 4.12115 11.4845 4.0748 11.2253 4.20442C10.1872 4.72174 9.08671 5.26612 7.92392 5.83758C7.66724 5.96249 7.56012 6.14802 7.47902 6.38196C7.24527 7.06102 7.10187 7.4903 7.04883 7.6698L13.6503 7.52576Z" fill="url(#paint3_linear_36_5664)"/>
<path d="M7.04983 7.67044C7.00705 7.50756 6.9268 7.53611 6.81198 7.75489C6.78854 7.80006 6.75671 7.80609 6.71376 7.77269C6.70292 7.76375 6.68962 7.75732 6.67511 7.754C6.66059 7.75069 6.64534 7.75058 6.63077 7.75371C6.61024 7.75718 6.59103 7.76498 6.57487 7.7764C6.55871 7.78783 6.54611 7.80253 6.53819 7.81919C6.52645 7.84273 6.50954 7.86411 6.4884 7.88216C6.45246 7.91423 6.41647 7.91423 6.38042 7.88216C6.32515 7.8311 6.2615 7.81801 6.18963 7.8417C6.11907 7.86447 6.04306 7.87185 5.96837 7.86318C5.8479 7.85109 5.73006 7.82424 5.61844 7.78343C5.5614 7.76205 5.54754 7.72772 5.57686 7.68044C5.58987 7.65968 5.59336 7.63548 5.58661 7.61261C5.57138 7.56156 5.54794 7.55803 5.51474 7.60202L5.48976 7.6341C5.47402 7.65744 5.45036 7.6761 5.42195 7.68756C5.39354 7.69903 5.36174 7.70275 5.33079 7.69825C5.27544 7.69293 5.21942 7.69714 5.16598 7.71063C5.11254 7.72412 5.06276 7.74662 5.01953 7.77681C4.95314 7.82095 4.88948 7.81727 4.83011 7.76607L4.77877 7.7209C4.76183 7.70598 4.74161 7.69409 4.71929 7.68593C4.69696 7.67777 4.67298 7.67351 4.64872 7.67338C3.99049 7.66612 3.34784 7.66808 2.72075 7.67926C2.5161 7.6828 2.29478 7.71492 2.05682 7.77564C1.85627 7.82669 1.63228 7.8208 1.38193 7.75769C1.33269 7.74504 1.28015 7.74545 1.23118 7.75886C1.09272 7.79784 0.942918 7.79493 0.806641 7.75062L7.04983 7.67044Z" fill="url(#paint4_linear_36_5664)"/>
<path d="M20.3294 16.9902C20.0913 16.6321 19.8566 16.2766 19.6247 15.9292L17.9587 15.2049L19.4681 17.8947C19.7125 17.7654 19.9661 17.6389 20.2229 17.5178C20.4546 17.4102 20.4892 17.2351 20.3294 16.9902ZM14.5609 15.7999C14.3949 15.8835 14.2015 15.8242 14.0662 15.7246C12.6413 14.6986 11.5713 13.497 10.8562 12.1198C10.5327 11.4995 10.283 10.8527 10.1108 10.1892L9.02095 9.29523L7.20147 7.79464L7.05174 7.67076C7.04233 7.71107 7.036 7.75153 7.02659 7.79184C6.85445 8.68861 6.80123 9.55285 6.87259 10.385C7.01667 12.184 7.72132 13.8409 8.98656 15.3557C9.98959 16.5639 11.3078 17.5534 12.8355 18.2449C13.9034 18.7323 15.0715 19.0769 16.3148 19.2682C16.5056 19.2995 16.7031 19.2687 16.869 19.182C17.7335 18.7483 18.5999 18.3193 19.4683 17.8949L16.0328 15.0648C15.5379 15.3099 15.0494 15.5554 14.5609 15.7999ZM20.3294 16.9902C20.0913 16.6321 19.8566 16.2766 19.6247 15.9292C19.2553 15.3772 18.8951 14.836 18.5381 14.3108C18.3752 14.0711 18.1529 14.0172 17.8708 14.1573C17.7392 14.2219 17.6076 14.2865 17.4792 14.3511L17.9584 15.2044L19.4681 17.8947C19.7125 17.7654 19.9661 17.6389 20.2229 17.5178C20.4546 17.4102 20.4892 17.2351 20.3294 16.9902ZM13.6497 7.52539C13.446 7.62765 13.239 7.7327 13.0326 7.83436C12.206 8.24918 11.3675 8.66566 10.5172 9.0838C10.1508 9.26418 9.91589 9.33687 9.99427 9.70852C10.0285 9.87036 10.0663 10.0322 10.1101 10.1879L14.234 13.5866L16.0316 15.0648L16.7831 14.6933C17.0118 14.5802 17.2436 14.4644 17.4784 14.3512L13.8249 7.8404L13.6497 7.52539Z" fill="url(#paint5_linear_36_5664)"/>
<path d="M24.9404 18.2409C24.8961 18.1803 24.8378 18.1637 24.7674 18.191C24.7067 18.2136 24.6776 18.1969 24.6819 18.1398C24.6835 18.1247 24.6877 18.1098 24.6944 18.0957C24.7178 18.0482 24.6998 18.0185 24.6405 18.0074C24.6273 18.0045 24.6136 18.0043 24.6003 18.0069C24.5871 18.0094 24.5747 18.0147 24.5643 18.0221C24.5466 18.0322 24.532 18.0458 24.5217 18.0618C24.5113 18.0777 24.5056 18.0955 24.5049 18.1138C24.4979 18.1887 24.4509 18.2266 24.3624 18.2278C23.9914 18.2316 23.6205 18.2153 23.2518 18.1791C23.1016 18.1657 22.9504 18.1625 22.7996 18.1696C22.6375 18.1782 22.4752 18.1551 22.3251 18.1019C22.2943 18.0912 22.2602 18.0899 22.2284 18.0982C22.0402 18.1482 21.7927 18.0733 21.6377 18.1625C21.6078 18.18 21.5729 18.1901 21.5367 18.1919C21.4447 18.1969 21.3525 18.1839 21.2671 18.1538C21.1998 18.1292 21.1272 18.1171 21.054 18.1182C20.7557 18.1248 20.458 18.1444 20.162 18.1771C20.115 18.183 20.0671 18.1759 20.0251 18.1569C19.9095 18.1063 19.7815 18.0802 19.6517 18.0807C19.5715 18.0807 19.559 18.0558 19.6158 18.0071C19.6274 17.9968 19.6368 17.9847 19.6433 17.9715C19.667 17.9096 19.6447 17.8918 19.5769 17.9191C19.5244 17.9393 19.4885 17.9322 19.4678 17.8965L24.9404 18.2409Z" fill="url(#paint6_linear_36_5664)"/>
<path d="M26.5158 7.92812C26.4258 8.01022 26.3677 7.98403 26.3428 7.84735C26.3414 7.83051 26.3327 7.81475 26.3183 7.80325C26.304 7.79174 26.285 7.78537 26.2654 7.78541C26.1706 7.7795 26.078 7.75771 25.9928 7.72126C25.9539 7.70341 25.9088 7.69818 25.8657 7.70654C25.4605 7.7779 25.0883 7.76952 24.7468 7.68036C24.7095 7.67079 24.6942 7.68153 24.7038 7.71361C24.7053 7.71765 24.7053 7.72199 24.7038 7.72604C24.7023 7.73008 24.6995 7.73365 24.6956 7.73626C24.6692 7.7576 24.6513 7.75407 24.6403 7.72552C24.639 7.72164 24.639 7.71749 24.6403 7.71361C24.6499 7.68418 24.6374 7.66947 24.6029 7.66947C21.8764 7.67064 19.1698 7.67104 16.483 7.67064C16.2962 7.67064 16.1274 7.63151 15.9421 7.63857C15.9223 7.63972 15.9023 7.63736 15.8835 7.63164C15.8648 7.62592 15.8476 7.61696 15.833 7.60532C15.7236 7.52322 15.6213 7.53175 15.5231 7.63033C15.4899 7.66476 15.4498 7.67064 15.4041 7.64813C15.3439 7.61741 15.2769 7.59784 15.2073 7.59067C15.1378 7.5835 15.0673 7.58889 15.0003 7.6065C14.9576 7.61731 14.9199 7.63932 14.8925 7.66947C14.8302 7.73725 14.7541 7.75034 14.6642 7.70875C14.6221 7.68891 14.5732 7.6822 14.526 7.68977C14.1788 7.73725 13.887 7.68251 13.6504 7.52557C13.757 7.36157 13.7409 7.17447 13.6021 6.96427C13.0018 6.05206 12.4149 5.1784 11.8413 4.34328C11.6906 4.12097 11.4845 4.07462 11.2253 4.20424C10.1872 4.72155 9.08674 5.26594 7.92394 5.83739C7.66727 5.96231 7.56015 6.14784 7.47904 6.38178C7.2453 7.06084 7.1019 7.49012 7.04885 7.66962C7.00607 7.50674 6.92582 7.53528 6.811 7.75407C6.78756 7.79924 6.75573 7.80527 6.71278 7.77187C6.70194 7.76293 6.68864 7.7565 6.67413 7.75318C6.65962 7.74986 6.64436 7.74976 6.62979 7.75289C6.60926 7.75636 6.59005 7.76415 6.57389 7.77558C6.55773 7.78701 6.54513 7.80171 6.53721 7.81836C6.52547 7.84191 6.50857 7.86329 6.48742 7.88134C6.45149 7.91341 6.41549 7.91341 6.37945 7.88134C6.32417 7.83028 6.26052 7.81719 6.18865 7.84087C6.1181 7.86365 6.04208 7.87103 5.9674 7.86236C5.84692 7.85027 5.72908 7.82342 5.61746 7.78261C5.56042 7.76123 5.54656 7.7269 5.57588 7.67962C5.5889 7.65886 5.59238 7.63465 5.58564 7.61179C5.57041 7.56074 5.54696 7.55721 5.51377 7.6012L5.48878 7.63327C5.47304 7.65662 5.44939 7.67527 5.42097 7.68674C5.39256 7.6982 5.36076 7.70193 5.32982 7.69742C5.27447 7.69211 5.21844 7.69632 5.165 7.70981C5.11156 7.7233 5.06178 7.74579 5.01856 7.77599C4.95216 7.82013 4.88851 7.81645 4.82913 7.76525L4.77779 7.72008C4.76085 7.70515 4.74063 7.69327 4.71831 7.68511C4.69599 7.67695 4.672 7.67268 4.64775 7.67256C3.98952 7.6653 3.34686 7.66726 2.71977 7.67844C2.51512 7.68197 2.29381 7.7141 2.05584 7.77481C1.85529 7.82587 1.6313 7.81998 1.38096 7.75686C1.33171 7.74422 1.27918 7.74463 1.2302 7.75804C1.09174 7.79701 0.941941 7.79411 0.805664 7.7498C1.76092 5.46536 3.51812 3.49257 5.83425 2.10428C8.15037 0.715992 10.911 -0.0192007 13.7343 0.00038125C16.5575 0.0199632 19.304 0.793353 21.5938 2.21359C23.8835 3.63383 25.6035 5.63073 26.5158 7.92812Z" fill="url(#paint7_linear_36_5664)"/>
<path d="M27.2474 11.5217C27.2557 11.9539 27.2359 12.3861 27.1878 12.8164C26.9738 14.7566 26.201 16.6203 24.9393 18.2394C24.9017 18.1909 24.8579 18.1721 24.8024 18.1805H24.7992C24.7884 18.1833 24.7779 18.1869 24.7679 18.1912C24.7083 18.2127 24.677 18.1967 24.6833 18.14C24.6829 18.1363 24.684 18.1325 24.6864 18.1293C24.6866 18.1181 24.6898 18.107 24.6958 18.0971C24.7177 18.048 24.699 18.0186 24.6395 18.0088C24.6267 18.0057 24.6132 18.0054 24.6001 18.0077C24.587 18.01 24.5748 18.015 24.5644 18.0222C24.5477 18.0319 24.5338 18.0448 24.5237 18.0599C24.5127 18.0763 24.5062 18.0947 24.5049 18.1137C24.5018 18.1623 24.4797 18.1945 24.4453 18.208C24.4214 18.2223 24.393 18.2298 24.3639 18.2295C23.9924 18.2314 23.621 18.2152 23.2516 18.1811C23.1019 18.1666 22.9511 18.163 22.8007 18.1703C22.6381 18.1792 22.4754 18.1561 22.3247 18.103C22.2939 18.0919 22.2598 18.09 22.2276 18.0977C22.0394 18.1487 21.7923 18.0734 21.6388 18.1623C21.6083 18.1799 21.5729 18.19 21.5362 18.1917C21.4442 18.197 21.3521 18.1841 21.2668 18.154C21.1993 18.1303 21.1269 18.1184 21.054 18.119C20.7555 18.1252 20.4575 18.1449 20.1614 18.1779C20.115 18.183 20.0679 18.1754 20.0267 18.1562C19.9099 18.1059 19.7809 18.0801 19.6503 18.0809C19.5719 18.0809 19.5594 18.0566 19.6161 18.0054C19.6289 17.9961 19.6386 17.984 19.6441 17.9704C19.6599 17.9274 19.6535 17.9058 19.6253 17.9058C19.6088 17.9078 19.593 17.9124 19.5784 17.9193C19.5252 17.9382 19.4876 17.9327 19.4687 17.8951C19.7131 17.7657 19.9667 17.6392 20.2235 17.5181C20.4552 17.4104 20.4898 17.2353 20.33 16.9904C20.0919 16.6322 19.8572 16.2768 19.6253 15.9294C19.2559 15.3774 18.8957 14.8362 18.5387 14.311C18.3758 14.0713 18.1535 14.0174 17.8714 14.1575C17.7398 14.2221 17.6082 14.2867 17.4798 14.3513C17.2451 14.4644 17.0132 14.5802 16.7846 14.6934L16.0331 15.0649C15.5382 15.31 15.0496 15.555 14.5615 15.8005C14.3955 15.8841 14.2021 15.8248 14.0668 15.7252C12.6419 14.6992 11.5719 13.4976 10.8568 12.1205C10.5333 11.5002 10.2836 10.8533 10.1114 10.1898C10.0676 10.0336 10.0299 9.87202 9.99555 9.71047C9.91718 9.33882 10.1521 9.26614 10.5185 9.08575C11.3672 8.66829 12.2057 8.25182 13.0339 7.83632C13.2406 7.73406 13.4473 7.62901 13.6509 7.52734C13.8888 7.6861 14.1802 7.73995 14.5277 7.69154C14.5745 7.68578 14.6223 7.69235 14.6646 7.71038C14.7555 7.75348 14.8306 7.7398 14.8932 7.67271C14.9192 7.64143 14.9567 7.61866 14.9997 7.60812C15.1438 7.57575 15.2784 7.58649 15.4037 7.65108C15.4507 7.67271 15.4882 7.66726 15.5235 7.63225C15.5398 7.61492 15.5587 7.59953 15.5798 7.58649C15.6549 7.53804 15.7333 7.54073 15.8147 7.59458C15.8209 7.60003 15.8272 7.60268 15.8335 7.60812C15.8482 7.61976 15.8655 7.62864 15.8843 7.63419C15.9032 7.63974 15.9232 7.64184 15.943 7.64034C16.1279 7.63504 16.2969 7.67271 16.4848 7.67271H24.6021C24.6363 7.67271 24.6491 7.6861 24.6397 7.71582V7.72832C24.6522 7.75525 24.671 7.75775 24.696 7.73642C24.7002 7.73434 24.7035 7.73106 24.7052 7.72714C24.7069 7.72322 24.707 7.7189 24.7054 7.71494C24.696 7.68257 24.7085 7.67183 24.7461 7.68257C25.0884 7.77085 25.4602 7.77953 25.8673 7.70684C25.9099 7.69862 25.9546 7.70439 25.9926 7.72303C26.0785 7.75761 26.1706 7.77945 26.265 7.78762C26.312 7.79027 26.337 7.8091 26.3433 7.84956C26.347 7.87564 26.3555 7.90106 26.3683 7.92489C26.3652 7.92769 26.3683 7.92769 26.3714 7.93033C26.3996 7.98919 26.4498 7.98919 26.5155 7.93033C26.9757 9.08732 27.2226 10.2991 27.2474 11.5217Z" fill="url(#paint8_linear_36_5664)"/>
<path d="M24.9397 18.2394C23.0883 20.6139 20.2909 22.3244 17.0745 23.0484C13.8581 23.7725 10.4448 23.4602 7.47764 22.1704C4.51047 20.8806 2.1943 18.7023 0.965517 16.0459C-0.263271 13.3896 -0.319845 10.4385 0.806451 7.74881C0.942902 7.79447 1.0937 7.79733 1.23236 7.75691C1.24773 7.75372 1.26344 7.7519 1.27925 7.75146H1.34513C1.35783 7.75191 1.37043 7.75374 1.3826 7.75691C1.63329 7.8187 1.85557 7.82679 2.05594 7.77574C2.0811 7.77029 2.10608 7.7622 2.13106 7.75691C2.17504 7.74602 2.21885 7.73793 2.25957 7.72998C2.41055 7.69935 2.5648 7.68219 2.71988 7.67878C3.34616 7.66804 3.99127 7.66524 4.64905 7.67334C4.68404 7.67235 4.71835 7.68187 4.74607 7.70026C4.74915 7.69761 4.74915 7.69761 4.74915 7.70026C4.75928 7.70569 4.76874 7.712 4.77738 7.71909L4.8306 7.76485C4.83649 7.77084 4.84402 7.77549 4.8525 7.77839C4.90264 7.81605 4.95517 7.8134 5.01233 7.77839C5.01541 7.77839 5.01541 7.77574 5.01849 7.77574C5.11568 7.7138 5.21904 7.68746 5.33163 7.69761C5.35788 7.70139 5.3848 7.69952 5.41 7.69217C5.44282 7.68039 5.47028 7.65973 5.4882 7.63332L5.51336 7.60095C5.54758 7.55784 5.56965 7.56063 5.5854 7.61169C5.58945 7.62285 5.59071 7.63463 5.58909 7.64625C5.58746 7.65786 5.583 7.66905 5.57599 7.67907C5.57291 7.68172 5.5729 7.68717 5.56965 7.68981C5.55083 7.73292 5.56349 7.7625 5.61363 7.78398H5.61671C5.72895 7.82366 5.84697 7.84994 5.9675 7.8621C6.04256 7.87152 6.11918 7.86412 6.18995 7.84062C6.26199 7.81899 6.32462 7.82988 6.38092 7.88094C6.41514 7.91331 6.45296 7.91331 6.48752 7.88094C6.50899 7.86349 6.526 7.84239 6.53749 7.819C6.54304 7.80761 6.55166 7.79752 6.56264 7.78957C6.57966 7.77104 6.60404 7.75857 6.63109 7.75455C6.64535 7.75072 6.66057 7.75046 6.675 7.7538C6.68942 7.75713 6.70244 7.76393 6.71254 7.77339C6.71989 7.77988 6.72838 7.78534 6.7377 7.78957H6.7442C6.74828 7.79199 6.753 7.79349 6.75793 7.79395C6.76286 7.79442 6.76784 7.79382 6.77243 7.79222C6.788 7.78957 6.80067 7.77618 6.81316 7.75455C6.82629 7.72661 6.84196 7.6996 6.86004 7.67378C6.94783 7.53106 7.01405 7.53106 7.05118 7.67113C7.04177 7.71144 7.03544 7.7519 7.02603 7.79222C6.85388 8.68898 6.80067 9.55323 6.87202 10.3854C7.01679 12.1841 7.72179 13.8409 8.98702 15.3556C9.99005 16.5639 11.3082 17.5534 12.8359 18.2448C13.9039 18.7323 15.0719 19.0769 16.3153 19.2681C16.5061 19.2994 16.7036 19.2687 16.8695 19.1819C17.734 18.7483 18.6004 18.3192 19.4688 17.8948C19.4876 17.9325 19.5252 17.9379 19.5785 17.9191C19.593 17.9121 19.6089 17.9075 19.6253 17.9056C19.6536 17.9056 19.6596 17.9272 19.6442 17.9701C19.6386 17.9838 19.6289 17.9958 19.6161 18.0052C19.5596 18.0564 19.5721 18.0806 19.6503 18.0806C19.781 18.0798 19.91 18.1056 20.0268 18.156C20.0679 18.1752 20.115 18.1827 20.1615 18.1776C20.4576 18.1446 20.7555 18.125 21.054 18.1187C21.127 18.1181 21.1993 18.13 21.2669 18.1538C21.3521 18.1838 21.4443 18.1967 21.5362 18.1914C21.5729 18.1898 21.6084 18.1796 21.6389 18.162C21.7929 18.0737 22.0398 18.1485 22.2277 18.0974C22.2598 18.0897 22.294 18.0916 22.3247 18.1027C22.4754 18.1559 22.6382 18.1789 22.8008 18.1701C22.9511 18.1627 23.102 18.1663 23.2516 18.1808C23.621 18.215 23.9924 18.2311 24.3639 18.2292C24.393 18.2295 24.4215 18.222 24.4454 18.2078C24.4796 18.1942 24.5018 18.162 24.5049 18.1134C24.5063 18.0945 24.5127 18.0761 24.5237 18.0596C24.5338 18.0446 24.5478 18.0317 24.5645 18.0219C24.5748 18.0147 24.5871 18.0098 24.6001 18.0074C24.6132 18.0051 24.6267 18.0055 24.6396 18.0085C24.6991 18.0193 24.7179 18.0488 24.6959 18.0968C24.6899 18.1068 24.6867 18.1178 24.6865 18.129C24.684 18.1322 24.6829 18.136 24.6834 18.1398C24.677 18.1964 24.7084 18.2125 24.7679 18.191C24.778 18.1867 24.7885 18.1831 24.7992 18.1802H24.8025C24.8583 18.1722 24.9021 18.191 24.9397 18.2394Z" fill="url(#paint9_linear_36_5664)"/>
<path d="M27.1878 12.8171C26.9733 14.7669 26.1939 16.6395 24.9209 18.2637C23.6479 19.8879 21.9219 21.2119 19.9005 22.1148L12.8356 18.2454L11.2885 17.3972L9.48463 11.5219L8.88281 9.56429L9.02056 9.29504L9.78169 7.81137L9.88436 7.60936L11.6486 4.16797C11.6627 4.1754 11.6763 4.1835 11.6893 4.19225L17.9214 7.66041L17.9433 7.67115L18.3026 7.87302L25.8781 12.0898L27.1878 12.8171Z" fill="url(#paint10_linear_36_5664)"/>
<path d="M13.6507 7.5259C12.623 8.04204 11.5788 8.5619 10.518 9.08549C10.1517 9.26617 9.91792 9.33753 9.99664 9.70977C10.5112 12.137 11.8676 14.142 14.0656 15.7248C14.2025 15.8235 14.3948 15.8829 14.5608 15.7997C15.6494 15.2559 16.7525 14.7084 17.8704 14.1574C18.1526 14.0182 18.3754 14.0706 18.5378 14.312C19.1187 15.1682 19.7158 16.0608 20.3288 16.9898C20.4907 17.2348 20.4548 17.4107 20.2238 17.5195C19.9653 17.6409 19.7131 17.7666 19.4673 17.8964C18.6003 18.321 17.7345 18.75 16.8699 19.1832C16.7033 19.2688 16.5061 19.2992 16.3153 19.2689C13.3182 18.8038 10.747 17.4612 8.98636 15.3564C7.10864 13.1083 6.46342 10.5461 7.05069 7.6698C7.10477 7.4903 7.24816 7.06102 7.48088 6.38196C7.56113 6.14773 7.66911 5.9622 7.92578 5.83758C9.08938 5.26671 10.1898 4.72233 11.2271 4.20442C11.4857 4.0748 11.6917 4.12115 11.8432 4.34346C12.4172 5.17946 13.0041 6.05312 13.6039 6.96445C13.7422 7.17505 13.7583 7.36215 13.6522 7.52576L13.6507 7.5259Z" fill="white"/>
<path d="M136 16.7852H130.1V21.8588H136V16.7852Z" fill="url(#paint11_linear_36_5664)"/>
<defs>
<linearGradient id="paint0_linear_36_5664" x1="26.9718" y1="1.0297" x2="8.28113" y2="22.7674" gradientUnits="userSpaceOnUse">
<stop stop-color="#00FFB0"/>
<stop offset="0.32" stop-color="#48D0FF"/>
<stop offset="0.58" stop-color="#5F5FC9"/>
<stop offset="0.98" stop-color="#C32782"/>
</linearGradient>
<linearGradient id="paint1_linear_36_5664" x1="23.8192" y1="-1.68341" x2="5.12795" y2="20.0551" gradientUnits="userSpaceOnUse">
<stop stop-color="#00FFB0"/>
<stop offset="0.32" stop-color="#48D0FF"/>
<stop offset="0.58" stop-color="#5F5FC9"/>
<stop offset="0.98" stop-color="#C32782"/>
</linearGradient>
<linearGradient id="paint2_linear_36_5664" x1="27.4234" y1="1.41564" x2="8.73214" y2="23.1542" gradientUnits="userSpaceOnUse">
<stop stop-color="#00FFB0"/>
<stop offset="0.32" stop-color="#48D0FF"/>
<stop offset="0.58" stop-color="#5F5FC9"/>
<stop offset="0.98" stop-color="#C32782"/>
</linearGradient>
<linearGradient id="paint3_linear_36_5664" x1="22.1565" y1="-3.11313" x2="3.46528" y2="18.6254" gradientUnits="userSpaceOnUse">
<stop stop-color="#00FFB0"/>
<stop offset="0.32" stop-color="#48D0FF"/>
<stop offset="0.58" stop-color="#5F5FC9"/>
<stop offset="0.98" stop-color="#C32782"/>
</linearGradient>
<linearGradient id="paint4_linear_36_5664" x1="19.3357" y1="-5.53736" x2="0.644382" y2="16.2012" gradientUnits="userSpaceOnUse">
<stop stop-color="#00FFB0"/>
<stop offset="0.32" stop-color="#48D0FF"/>
<stop offset="0.58" stop-color="#5F5FC9"/>
<stop offset="0.98" stop-color="#C32782"/>
</linearGradient>
<linearGradient id="paint5_linear_36_5664" x1="27.039" y1="1.0843" x2="8.34655" y2="22.8239" gradientUnits="userSpaceOnUse">
<stop stop-color="#00FFB0"/>
<stop offset="0.32" stop-color="#48D0FF"/>
<stop offset="0.58" stop-color="#5F5FC9"/>
<stop offset="0.98" stop-color="#C32782"/>
</linearGradient>
<linearGradient id="paint6_linear_36_5664" x1="34.4973" y1="7.49829" x2="15.806" y2="29.2368" gradientUnits="userSpaceOnUse">
<stop stop-color="#00FFB0"/>
<stop offset="0.32" stop-color="#48D0FF"/>
<stop offset="0.58" stop-color="#5F5FC9"/>
<stop offset="0.98" stop-color="#C32782"/>
</linearGradient>
<linearGradient id="paint7_linear_36_5664" x1="23.819" y1="-1.6832" x2="5.12769" y2="20.0552" gradientUnits="userSpaceOnUse">
<stop stop-color="#00FFB0"/>
<stop offset="0.32" stop-color="#48D0FF"/>
<stop offset="0.58" stop-color="#5F5FC9"/>
<stop offset="0.98" stop-color="#C32782"/>
</linearGradient>
<linearGradient id="paint8_linear_36_5664" x1="29.6582" y1="3.34088" x2="10.9696" y2="25.0764" gradientUnits="userSpaceOnUse">
<stop stop-color="#00FFB0"/>
<stop offset="0.32" stop-color="#48D0FF"/>
<stop offset="0.58" stop-color="#5F5FC9"/>
<stop offset="0.98" stop-color="#C32782"/>
</linearGradient>
<linearGradient id="paint9_linear_36_5664" x1="26.9727" y1="1.02876" x2="8.28132" y2="22.7673" gradientUnits="userSpaceOnUse">
<stop stop-color="#00FFB0"/>
<stop offset="0.32" stop-color="#48D0FF"/>
<stop offset="0.58" stop-color="#5F5FC9"/>
<stop offset="0.98" stop-color="#C32782"/>
</linearGradient>
<linearGradient id="paint10_linear_36_5664" x1="-0.137771" y1="13.8798" x2="17.9111" y2="12.747" gradientUnits="userSpaceOnUse">
<stop stop-color="#17152B"/>
<stop offset="0.98" stop-color="#17152B" stop-opacity="0"/>
</linearGradient>
<linearGradient id="paint11_linear_36_5664" x1="147.196" y1="7.15912" x2="131.291" y2="25.6563" gradientUnits="userSpaceOnUse">
<stop stop-color="#00FFB0"/>
<stop offset="0.32" stop-color="#48D0FF"/>
<stop offset="0.58" stop-color="#5F5FC9"/>
<stop offset="0.98" stop-color="#C32782"/>
</linearGradient>
</defs>
</svg>
