<svg width="24" height="25" viewBox="0 0 24 25" fill="none" xmlns="http://www.w3.org/2000/svg">
<path d="M15.1831 3.11489C14.4812 2.72405 13.671 2.5 12.8029 2.5H11.0999C8.15552 2.5 5.87737 5.08064 6.24258 8.00234L6.32194 8.63719C6.46808 9.80631 6.04102 10.9741 5.17514 11.7731C3.99242 12.8645 3.66383 14.6016 4.36619 16.0496L4.46954 16.2627C5.13331 17.6311 6.52054 18.5 8.04144 18.5H16.2623C17.5656 18.5 18.7785 17.8342 19.4783 16.7347C20.4661 15.1826 20.2045 13.1465 18.8564 11.8945L18.8125 11.8538C18.3991 11.4698 18.0805 11.0067 17.8697 10.5C17.7836 10.2931 17.7154 10.0789 17.6662 9.85988M9.18317 21.5L9.48317 21.9C10.8332 23.7 13.5332 23.7 14.8832 21.9L15.1832 21.5" stroke="#333333" stroke-width="1.5" stroke-linecap="round"/>
<path d="M19.1831 6.5C19.1831 7.60457 18.2877 8.5 17.1831 8.5C16.0785 8.5 15.1831 7.60457 15.1831 6.5C15.1831 5.39543 16.0785 4.5 17.1831 4.5C18.2877 4.5 19.1831 5.39543 19.1831 6.5Z" fill="#D43908"/>
</svg>
