<svg width="31" height="31" viewBox="0 0 31 31" fill="none" xmlns="http://www.w3.org/2000/svg">
<path d="M31 15.5C31 24.0604 24.0604 31 15.5 31C6.93959 31 0 24.0604 0 15.5C0 6.93959 6.93959 0 15.5 0C24.0604 0 31 6.93959 31 15.5ZM3.99407 15.5C3.99407 21.8545 9.14545 27.0059 15.5 27.0059C21.8545 27.0059 27.0059 21.8545 27.0059 15.5C27.0059 9.14545 21.8545 3.99407 15.5 3.99407C9.14545 3.99407 3.99407 9.14545 3.99407 15.5Z" fill="#F8F8FA"/>
<circle cx="15.5" cy="15.5" r="15.5" fill="url(#paint0_linear_66_5806)"/>
<path d="M14.375 21.2083H12.5C11.5833 21.2083 10.8333 21.9583 10.8333 22.875V23.0833H10C9.65833 23.0833 9.375 23.3667 9.375 23.7083C9.375 24.05 9.65833 24.3333 10 24.3333H20C20.3417 24.3333 20.625 24.05 20.625 23.7083C20.625 23.3667 20.3417 23.0833 20 23.0833H19.1667V22.875C19.1667 21.9583 18.4167 21.2083 17.5 21.2083H15.625V19.3C15.4167 19.325 15.2083 19.3333 15 19.3333C14.7917 19.3333 14.5833 19.325 14.375 19.3V21.2083Z" fill="white"/>
<path d="M20.3999 15.7C20.9499 15.4917 21.4332 15.15 21.8166 14.7667C22.5916 13.9084 23.0999 12.8834 23.0999 11.6834C23.0999 10.4834 22.1582 9.54169 20.9582 9.54169H20.4916C19.9499 8.43335 18.8166 7.66669 17.4999 7.66669H12.4999C11.1832 7.66669 10.0499 8.43335 9.50824 9.54169H9.04157C7.84157 9.54169 6.8999 10.4834 6.8999 11.6834C6.8999 12.8834 7.40824 13.9084 8.18324 14.7667C8.56657 15.15 9.0499 15.4917 9.5999 15.7C10.4666 17.8334 12.5499 19.3334 14.9999 19.3334C17.4499 19.3334 19.5332 17.8334 20.3999 15.7ZM17.3666 13.0417L16.8499 13.675C16.7666 13.7667 16.7082 13.95 16.7166 14.075L16.7666 14.8917C16.7999 15.3917 16.4416 15.65 15.9749 15.4667L15.2166 15.1667C15.0999 15.125 14.8999 15.125 14.7832 15.1667L14.0249 15.4667C13.5582 15.65 13.1999 15.3917 13.2332 14.8917L13.2832 14.075C13.2916 13.95 13.2332 13.7667 13.1499 13.675L12.6332 13.0417C12.3082 12.6584 12.4499 12.2334 12.9332 12.1084L13.7249 11.9084C13.8499 11.875 13.9999 11.7584 14.0666 11.65L14.5082 10.9667C14.7832 10.5417 15.2166 10.5417 15.4916 10.9667L15.9332 11.65C15.9999 11.7584 16.1499 11.875 16.2749 11.9084L17.0666 12.1084C17.5499 12.2334 17.6916 12.6584 17.3666 13.0417Z" fill="white"/>
<defs>
<linearGradient id="paint0_linear_66_5806" x1="31.3982" y1="8.20587" x2="-1.95355" y2="8.79236" gradientUnits="userSpaceOnUse">
<stop stop-color="#6FA9E2"/>
<stop offset="1" stop-color="#B3387F"/>
</linearGradient>
</defs>
</svg>
