<svg width="31" height="31" viewBox="0 0 31 31" fill="none" xmlns="http://www.w3.org/2000/svg">
<path d="M31 15.5C31 24.0604 24.0604 31 15.5 31C6.93959 31 0 24.0604 0 15.5C0 6.93959 6.93959 0 15.5 0C24.0604 0 31 6.93959 31 15.5ZM3.99407 15.5C3.99407 21.8545 9.14545 27.0059 15.5 27.0059C21.8545 27.0059 27.0059 21.8545 27.0059 15.5C27.0059 9.14545 21.8545 3.99407 15.5 3.99407C9.14545 3.99407 3.99407 9.14545 3.99407 15.5Z" fill="#F8F8FA"/>
<circle cx="15.5" cy="15.5" r="15.5" fill="url(#paint0_linear_66_5789)"/>
<path d="M22.7083 21.3917L21.3333 21.7167C21.025 21.7917 20.7833 22.025 20.7166 22.3333L20.425 23.5583C20.2666 24.225 19.4166 24.4333 18.975 23.9083L16.4833 21.0417C16.2833 20.8083 16.3916 20.4417 16.6916 20.3667C18.1666 20.0083 19.4916 19.1833 20.4666 18.0083C20.625 17.8167 20.9083 17.7917 21.0833 17.9667L22.9333 19.8167C23.5666 20.45 23.3416 21.2417 22.7083 21.3917Z" fill="white"/>
<path d="M7.24989 21.3917L8.62489 21.7167C8.93322 21.7917 9.17489 22.025 9.24156 22.3333L9.53322 23.5583C9.69156 24.225 10.5416 24.4333 10.9832 23.9083L13.4749 21.0417C13.6749 20.8083 13.5666 20.4417 13.2666 20.3667C11.7916 20.0083 10.4666 19.1833 9.49156 18.0083C9.33322 17.8167 9.04989 17.7917 8.87489 17.9667L7.02489 19.8167C6.39156 20.45 6.61656 21.2417 7.24989 21.3917Z" fill="white"/>
<path d="M15.0001 7.66669C11.7751 7.66669 9.16675 10.275 9.16675 13.5C9.16675 14.7084 9.52508 15.8167 10.1417 16.7417C11.0417 18.075 12.4667 19.0167 14.1251 19.2584C14.4084 19.3084 14.7001 19.3334 15.0001 19.3334C15.3001 19.3334 15.5917 19.3084 15.8751 19.2584C17.5334 19.0167 18.9584 18.075 19.8584 16.7417C20.4751 15.8167 20.8334 14.7084 20.8334 13.5C20.8334 10.275 18.2251 7.66669 15.0001 7.66669ZM17.5501 13.3167L16.8584 14.0084C16.7417 14.125 16.6751 14.35 16.7167 14.5167L16.9167 15.375C17.0751 16.05 16.7167 16.3167 16.1167 15.9584L15.2834 15.4667C15.1334 15.375 14.8834 15.375 14.7334 15.4667L13.9001 15.9584C13.3001 16.3084 12.9417 16.05 13.1001 15.375L13.3001 14.5167C13.3334 14.3584 13.2751 14.125 13.1584 14.0084L12.4501 13.3167C12.0417 12.9084 12.1751 12.5 12.7417 12.4084L13.6334 12.2584C13.7834 12.2334 13.9584 12.1 14.0251 11.9667L14.5167 10.9834C14.7834 10.45 15.2167 10.45 15.4834 10.9834L15.9751 11.9667C16.0417 12.1 16.2167 12.2334 16.3751 12.2584L17.2667 12.4084C17.8251 12.5 17.9584 12.9084 17.5501 13.3167Z" fill="white"/>
<defs>
<linearGradient id="paint0_linear_66_5789" x1="31.3982" y1="8.20587" x2="-1.95355" y2="8.79236" gradientUnits="userSpaceOnUse">
<stop stop-color="#6FA9E2"/>
<stop offset="1" stop-color="#B3387F"/>
</linearGradient>
</defs>
</svg>
