<svg width="" height="" viewBox="0 0 162 39" fill="none" xmlns="http://www.w3.org/2000/svg">
<path d="M27.7666 17.8745C29.1394 16.7249 30.0124 14.9982 30.0124 13.0676C30.0124 11.1371 29.1394 9.41037 27.7666 8.26077C27.9239 8.18458 28.0753 8.1019 28.2196 8.0123C29.1301 7.44612 30.2049 7.11914 31.356 7.11914C34.6413 7.11914 37.3045 9.78242 37.3045 13.0676C37.3045 16.3529 34.6413 19.0161 31.356 19.0161C30.2049 19.0161 29.1301 18.6891 28.2196 18.123C28.0753 18.0334 27.9239 17.9507 27.7666 17.8745Z" fill="url(#paint0_linear_350_10741)"/>
<path d="M26.1146 14.0037C26.7286 12.3218 26.6213 10.3899 25.656 8.71798C24.6906 7.04604 23.0713 5.98716 21.3076 5.67798C21.4058 5.53337 21.4955 5.38606 21.5756 5.23633C22.0811 4.29074 22.8484 3.47019 23.8453 2.89462C26.6904 1.25199 30.3286 2.2268 31.9711 5.07192C33.6137 7.91705 32.639 11.5551 29.7938 13.1977C28.7969 13.7733 27.7026 14.0275 26.631 13.9925C26.4613 13.9869 26.2888 13.9911 26.1146 14.0037Z" fill="url(#paint1_linear_350_10741)"/>
<path d="M22.7486 11.478C22.4394 9.7144 21.3805 8.095 19.7086 7.1297C18.0367 6.1644 16.1048 6.05709 14.4229 6.67115C14.4356 6.49684 14.4397 6.32437 14.4341 6.1547C14.3991 5.08303 14.6533 3.98876 15.2289 2.99184C16.8716 0.146721 20.5096 -0.82809 23.3547 0.814543C26.1998 2.45718 27.1747 6.09522 25.532 8.94038C24.9564 9.93725 24.1359 10.7046 23.1903 11.2101C23.0406 11.2901 22.8933 11.3799 22.7486 11.478Z" fill="url(#paint2_linear_350_10741)"/>
<path d="M18.5701 10.9735C17.4205 9.6007 15.6938 8.72773 13.7632 8.72773C11.8326 8.72773 10.1059 9.6007 8.95632 10.9735C8.88017 10.8161 8.79747 10.6648 8.70783 10.5205C8.14168 9.60993 7.8147 8.53521 7.8147 7.38406C7.8147 4.09878 10.4779 1.43555 13.7632 1.43555C17.0485 1.43555 19.7117 4.09878 19.7117 7.38406C19.7117 8.53521 19.3847 9.60993 18.8186 10.5205C18.7289 10.6648 18.6462 10.8161 18.5701 10.9735Z" fill="url(#paint3_linear_350_10741)"/>
<path d="M14.6981 12.6263C13.0162 12.0122 11.0843 12.1195 9.41234 13.0848C7.74038 14.0501 6.68151 15.6695 6.37234 17.4331C6.22773 17.3349 6.0804 17.2452 5.93068 17.1652C4.98509 16.6596 4.16453 15.8923 3.58896 14.8955C1.94632 12.0503 2.92113 8.41228 5.76626 6.76963C8.61139 5.12698 12.2494 6.1018 13.8921 8.94695C14.4677 9.94383 14.7219 11.0381 14.6868 12.1098C14.6813 12.2794 14.6854 12.4519 14.6981 12.6263Z" fill="url(#paint4_linear_350_10741)"/>
<path d="M12.1717 15.9925C10.408 16.3017 8.78865 17.3605 7.82335 19.0325C6.85805 20.7044 6.75074 22.6363 7.36481 24.3182C7.19048 24.3055 7.01799 24.3014 6.8483 24.3069C5.77664 24.342 4.68237 24.0878 3.68546 23.5122C0.840325 21.8695 -0.134488 18.2315 1.50815 15.3864C3.15078 12.5413 6.78883 11.5664 9.63396 13.2091C10.6309 13.7847 11.3981 14.6052 11.9037 15.5507C11.9837 15.7005 12.0735 15.8478 12.1717 15.9925Z" fill="url(#paint5_linear_350_10741)"/>
<path d="M11.6668 20.171C10.294 21.3206 9.42103 23.0473 9.42103 24.9778C9.42103 26.9084 10.294 28.6351 11.6668 29.7847C11.5095 29.8608 11.3581 29.9436 11.2139 30.0332C10.3033 30.5993 9.22855 30.9263 8.07741 30.9263C4.79214 30.9263 2.12891 28.2631 2.12891 24.9778C2.12891 21.6925 4.79214 19.0293 8.07741 19.0293C9.22855 19.0293 10.3033 19.3563 11.2139 19.9225C11.3581 20.0121 11.5095 20.0948 11.6668 20.171Z" fill="url(#paint6_linear_350_10741)"/>
<path d="M13.3177 24.043C12.7035 25.7249 12.8109 27.6568 13.7762 29.3287C14.7415 31.0008 16.3609 32.0596 18.1245 32.3687C18.0264 32.5134 17.9366 32.6607 17.8566 32.8105C17.3511 33.756 16.5838 34.5765 15.5869 35.1521C12.7417 36.7948 9.10366 35.8199 7.46103 32.9748C5.81839 30.1297 6.79321 26.4917 9.63833 24.849C10.6353 24.2734 11.7295 24.0192 12.8012 24.0543C12.9708 24.0598 13.1433 24.0557 13.3177 24.043Z" fill="url(#paint7_linear_350_10741)"/>
<path d="M16.6848 26.5693C16.994 28.333 18.0528 29.9524 19.7248 30.9176C21.3967 31.8829 23.3287 31.9902 25.0106 31.3762C24.9979 31.5505 24.9938 31.7229 24.9993 31.8927C25.0344 32.9643 24.7802 34.0586 24.2046 35.0555C22.5619 37.9007 18.9239 38.8754 16.0788 37.2328C13.2336 35.5902 12.2588 31.9522 13.9015 29.107C14.4771 28.1101 15.2976 27.3428 16.2431 26.8373C16.3929 26.7572 16.5402 26.6674 16.6848 26.5693Z" fill="url(#paint8_linear_350_10741)"/>
<path d="M20.8632 27.0752C22.0128 28.448 23.7395 29.3209 25.6702 29.3209C27.6008 29.3209 29.3275 28.448 30.4771 27.0752C30.5532 27.2325 30.6359 27.3839 30.7256 27.5281C31.2917 28.4386 31.6187 29.5135 31.6187 30.6646C31.6187 33.9499 28.9555 36.6131 25.6702 36.6131C22.3849 36.6131 19.7217 33.9499 19.7217 30.6646C19.7217 29.5135 20.0487 28.4386 20.6148 27.5281C20.7045 27.3839 20.7872 27.2325 20.8632 27.0752Z" fill="url(#paint9_linear_350_10741)"/>
<path d="M24.7354 25.423C26.4173 26.0371 28.3492 25.9298 30.0211 24.9646C31.693 23.9992 32.7519 22.3799 33.0611 20.6162C33.2057 20.7143 33.353 20.8041 33.5028 20.8841C34.4484 21.3897 35.2689 22.157 35.8445 23.1539C37.4872 25.999 36.5123 29.637 33.6672 31.2797C30.8221 32.9223 27.1841 31.9475 25.5414 29.1024C24.9658 28.1055 24.7116 27.0112 24.7466 25.9396C24.7522 25.7699 24.7481 25.5974 24.7354 25.423Z" fill="url(#paint10_linear_350_10741)"/>
<path d="M31.6136 19.0101C31.6124 19.0122 31.6112 19.0143 31.61 19.0164C30.6447 20.6883 29.0254 21.7472 27.2617 22.0564C27.3598 22.201 27.4496 22.3484 27.5297 22.498C28.0352 23.4437 28.8025 24.2642 29.7994 24.8397C32.6446 26.4824 36.2825 25.5076 37.9252 22.6625C39.3334 20.2232 38.8179 17.2013 36.8493 15.3535C35.9845 17.429 33.9776 18.9094 31.6136 19.0101Z" fill="url(#paint11_linear_350_10741)"/>
<path d="M52.2708 32.1398V8.15167H61.7348C63.5464 8.15167 65.0925 8.47573 66.3732 9.12384C67.6616 9.76415 68.6416 10.6739 69.3131 11.853C69.9925 13.0243 70.3321 14.4025 70.3321 15.9876C70.3321 17.5806 69.9886 18.951 69.3014 20.0989C68.6142 21.239 67.6186 22.1135 66.3146 22.7226C65.0184 23.3317 63.4488 23.6362 61.606 23.6362H55.2693V19.5601H60.7861C61.7543 19.5601 62.5586 19.4273 63.1989 19.1619C63.8393 18.8964 64.3156 18.4981 64.6279 17.9671C64.9481 17.4361 65.1082 16.7763 65.1082 15.9876C65.1082 15.1912 64.9481 14.5196 64.6279 13.973C64.3156 13.4264 63.8354 13.0125 63.1872 12.7314C62.5469 12.4425 61.7387 12.2981 60.7627 12.2981H57.3425V32.1398H52.2708ZM65.2253 21.2233L71.1872 32.1398H65.5884L59.7553 21.2233H65.2253Z" fill="#D4D4D8"/>
<path d="M73.8226 32.1398V14.1487H78.8123V32.1398H73.8226ZM76.3292 11.8295C75.5874 11.8295 74.951 11.5836 74.42 11.0916C73.8968 10.5919 73.6352 9.99451 73.6352 9.29954C73.6352 8.61238 73.8968 8.02283 74.42 7.53088C74.951 7.03113 75.5874 6.78125 76.3292 6.78125C77.071 6.78125 77.7035 7.03113 78.2267 7.53088C78.7577 8.02283 79.0232 8.61238 79.0232 9.29954C79.0232 9.99451 78.7577 10.5919 78.2267 11.0916C77.7035 11.5836 77.071 11.8295 76.3292 11.8295Z" fill="#D4D4D8"/>
<path d="M89.4389 32.4326C88.0724 32.4326 86.8347 32.0813 85.7259 31.3785C84.6249 30.6679 83.7503 29.6254 83.1022 28.2511C82.4619 26.869 82.1417 25.1745 82.1417 23.1677C82.1417 21.1062 82.4736 19.3922 83.1373 18.0257C83.8011 16.6514 84.6835 15.6245 85.7845 14.9452C86.8933 14.258 88.1076 13.9144 89.4272 13.9144C90.4345 13.9144 91.274 14.0862 91.9455 14.4298C92.6248 14.7656 93.1715 15.1873 93.5853 15.6948C94.007 16.1946 94.3271 16.6865 94.5458 17.1707H94.698V8.15167H99.6761V32.1398H94.7566V29.2584H94.5458C94.3115 29.7582 93.9796 30.254 93.5502 30.746C93.1285 31.2301 92.578 31.6323 91.8986 31.9524C91.2271 32.2726 90.4072 32.4326 89.4389 32.4326ZM91.0202 28.462C91.8245 28.462 92.5038 28.2433 93.0582 27.806C93.6204 27.3609 94.0499 26.7401 94.3467 25.9437C94.6512 25.1472 94.8035 24.214 94.8035 23.1443C94.8035 22.0745 94.6551 21.1453 94.3584 20.3566C94.0616 19.5679 93.6322 18.9588 93.0699 18.5294C92.5077 18.0999 91.8245 17.8851 91.0202 17.8851C90.2003 17.8851 89.5092 18.1077 88.947 18.5528C88.3848 18.9979 87.9592 19.6148 87.6703 20.4034C87.3813 21.1921 87.2369 22.1057 87.2369 23.1443C87.2369 24.1906 87.3813 25.1159 87.6703 25.9202C87.967 26.7167 88.3926 27.3414 88.947 27.7943C89.5092 28.2394 90.2003 28.462 91.0202 28.462Z" fill="#D4D4D8"/>
<path d="M111.907 32.4912C110.088 32.4912 108.514 32.1047 107.187 31.3316C105.867 30.5508 104.848 29.4654 104.13 28.0754C103.412 26.6777 103.052 25.0574 103.052 23.2145C103.052 21.3561 103.412 19.7319 104.13 18.3419C104.848 16.9442 105.867 15.8588 107.187 15.0857C108.514 14.3049 110.088 13.9144 111.907 13.9144C113.727 13.9144 115.296 14.3049 116.616 15.0857C117.943 15.8588 118.966 16.9442 119.685 18.3419C120.403 19.7319 120.762 21.3561 120.762 23.2145C120.762 25.0574 120.403 26.6777 119.685 28.0754C118.966 29.4654 117.943 30.5508 116.616 31.3316C115.296 32.1047 113.727 32.4912 111.907 32.4912ZM111.931 28.6259C112.758 28.6259 113.45 28.3917 114.004 27.9232C114.558 27.4468 114.976 26.7987 115.257 25.9788C115.546 25.1589 115.691 24.2258 115.691 23.1794C115.691 22.133 115.546 21.1999 115.257 20.38C114.976 19.5601 114.558 18.912 114.004 18.4357C113.45 17.9593 112.758 17.7212 111.931 17.7212C111.095 17.7212 110.392 17.9593 109.822 18.4357C109.26 18.912 108.835 19.5601 108.546 20.38C108.265 21.1999 108.124 22.133 108.124 23.1794C108.124 24.2258 108.265 25.1589 108.546 25.9788C108.835 26.7987 109.26 27.4468 109.822 27.9232C110.392 28.3917 111.095 28.6259 111.931 28.6259Z" fill="#D4D4D8"/>
<path d="M124.007 32.1398V14.1487H128.844V17.2878H129.032C129.36 16.1711 129.91 15.3278 130.683 14.7578C131.456 14.1799 132.346 13.891 133.354 13.891C133.604 13.891 133.873 13.9066 134.162 13.9379C134.451 13.9691 134.705 14.0121 134.923 14.0667V18.4942C134.689 18.4239 134.365 18.3615 133.951 18.3068C133.537 18.2521 133.159 18.2248 132.815 18.2248C132.081 18.2248 131.425 18.3849 130.847 18.7051C130.277 19.0174 129.824 19.4547 129.488 20.0169C129.161 20.5791 128.997 21.2272 128.997 21.9613V32.1398H124.007Z" fill="#D4D4D8"/>
<path d="M137.503 32.1398V14.1487H142.493V32.1398H137.503ZM140.01 11.8295C139.268 11.8295 138.631 11.5836 138.1 11.0916C137.577 10.5919 137.316 9.99451 137.316 9.29954C137.316 8.61238 137.577 8.02283 138.1 7.53088C138.631 7.03113 139.268 6.78125 140.01 6.78125C140.751 6.78125 141.384 7.03113 141.907 7.53088C142.438 8.02283 142.704 8.61238 142.704 9.29954C142.704 9.99451 142.438 10.5919 141.907 11.0916C141.384 11.5836 140.751 11.8295 140.01 11.8295Z" fill="#D4D4D8"/>
<path d="M151.62 32.4795C150.472 32.4795 149.449 32.2804 148.551 31.8821C147.653 31.4761 146.943 30.8787 146.42 30.0901C145.904 29.2936 145.647 28.3019 145.647 27.115C145.647 26.1155 145.83 25.276 146.197 24.5967C146.564 23.9173 147.064 23.3707 147.696 22.9569C148.329 22.543 149.047 22.2307 149.851 22.0198C150.664 21.809 151.515 21.6606 152.405 21.5747C153.451 21.4654 154.295 21.3639 154.935 21.2702C155.575 21.1687 156.04 21.0203 156.329 20.8251C156.618 20.6299 156.762 20.341 156.762 19.9583V19.8881C156.762 19.1462 156.528 18.5723 156.059 18.1663C155.599 17.7602 154.943 17.5572 154.092 17.5572C153.194 17.5572 152.479 17.7563 151.948 18.1545C151.417 18.545 151.066 19.0369 150.894 19.6304L146.279 19.2556C146.513 18.1623 146.974 17.2175 147.661 16.421C148.348 15.6167 149.235 14.9998 150.32 14.5704C151.413 14.1331 152.678 13.9144 154.115 13.9144C155.114 13.9144 156.071 14.0316 156.985 14.2658C157.906 14.5001 158.722 14.8632 159.433 15.3551C160.151 15.8471 160.717 16.4796 161.131 17.2526C161.545 18.0179 161.752 18.9354 161.752 20.0052V32.1398H157.02V29.645H156.879C156.59 30.2072 156.204 30.703 155.72 31.1325C155.236 31.5542 154.654 31.886 153.974 32.1281C153.295 32.3624 152.51 32.4795 151.62 32.4795ZM153.049 29.0359C153.783 29.0359 154.431 28.8914 154.993 28.6025C155.556 28.3058 155.997 27.9075 156.317 27.4078C156.637 26.908 156.797 26.3419 156.797 25.7094V23.8002C156.641 23.9017 156.426 23.9954 156.153 24.0813C155.888 24.1594 155.587 24.2336 155.251 24.3038C154.915 24.3663 154.58 24.4249 154.244 24.4795C153.908 24.5264 153.604 24.5693 153.33 24.6084C152.745 24.6943 152.233 24.8309 151.796 25.0183C151.359 25.2057 151.019 25.4595 150.777 25.7797C150.535 26.092 150.414 26.4825 150.414 26.951C150.414 27.6303 150.66 28.1496 151.152 28.5088C151.651 28.8602 152.284 29.0359 153.049 29.0359Z" fill="#D4D4D8"/>
<defs>
<linearGradient id="paint0_linear_350_10741" x1="28.5114" y1="7.11914" x2="28.5114" y2="19.0161" gradientUnits="userSpaceOnUse">
<stop stop-color="#25136D"/>
<stop offset="1" stop-color="#3D9BA2"/>
</linearGradient>
<linearGradient id="paint1_linear_350_10741" x1="21.3818" y1="4.31691" x2="27.3303" y2="14.6201" gradientUnits="userSpaceOnUse">
<stop stop-color="#25136D"/>
<stop offset="1" stop-color="#3D9BA2"/>
</linearGradient>
<linearGradient id="paint2_linear_350_10741" x1="13.8066" y1="5.45534" x2="24.1097" y2="11.4038" gradientUnits="userSpaceOnUse">
<stop stop-color="#25136D"/>
<stop offset="1" stop-color="#3D9BA2"/>
</linearGradient>
<linearGradient id="paint3_linear_350_10741" x1="7.8147" y1="10.2286" x2="19.7117" y2="10.2286" gradientUnits="userSpaceOnUse">
<stop stop-color="#25136D"/>
<stop offset="1" stop-color="#3D9BA2"/>
</linearGradient>
<linearGradient id="paint4_linear_350_10741" x1="5.01127" y1="17.3589" x2="15.3144" y2="11.4104" gradientUnits="userSpaceOnUse">
<stop stop-color="#25136D"/>
<stop offset="1" stop-color="#3D9BA2"/>
</linearGradient>
<linearGradient id="paint5_linear_350_10741" x1="6.14897" y1="24.9345" x2="12.0975" y2="14.6314" gradientUnits="userSpaceOnUse">
<stop stop-color="#25136D"/>
<stop offset="1" stop-color="#3D9BA2"/>
</linearGradient>
<linearGradient id="paint6_linear_350_10741" x1="10.922" y1="30.9263" x2="10.922" y2="19.0293" gradientUnits="userSpaceOnUse">
<stop stop-color="#25136D"/>
<stop offset="1" stop-color="#3D9BA2"/>
</linearGradient>
<linearGradient id="paint7_linear_350_10741" x1="18.0503" y1="33.7298" x2="12.1018" y2="23.4267" gradientUnits="userSpaceOnUse">
<stop stop-color="#25136D"/>
<stop offset="1" stop-color="#3D9BA2"/>
</linearGradient>
<linearGradient id="paint8_linear_350_10741" x1="25.6269" y1="32.5921" x2="15.3238" y2="26.6434" gradientUnits="userSpaceOnUse">
<stop stop-color="#25136D"/>
<stop offset="1" stop-color="#3D9BA2"/>
</linearGradient>
<linearGradient id="paint9_linear_350_10741" x1="31.6187" y1="27.82" x2="19.7217" y2="27.82" gradientUnits="userSpaceOnUse">
<stop stop-color="#25136D"/>
<stop offset="1" stop-color="#3D9BA2"/>
</linearGradient>
<linearGradient id="paint10_linear_350_10741" x1="34.4222" y1="20.6904" x2="24.1191" y2="26.6389" gradientUnits="userSpaceOnUse">
<stop stop-color="#25136D"/>
<stop offset="1" stop-color="#3D9BA2"/>
</linearGradient>
<linearGradient id="paint11_linear_350_10741" x1="33.2844" y1="13.1144" x2="27.3359" y2="23.4175" gradientUnits="userSpaceOnUse">
<stop stop-color="#25136D"/>
<stop offset="1" stop-color="#3D9BA2"/>
</linearGradient>
</defs>
</svg>
