<svg width="28" height="28" viewBox="0 0 28 28" fill="none" xmlns="http://www.w3.org/2000/svg">
<path d="M22.435 17.8033L19.4717 17.465C19.1233 17.4241 18.7701 17.4626 18.4387 17.5778C18.1073 17.693 17.8063 17.8818 17.5584 18.13L15.4117 20.2767C12.1 18.5919 9.40812 15.9 7.72338 12.5883L9.88171 10.43C10.3834 9.92833 10.6284 9.22833 10.5467 8.51666L10.2084 5.57666C10.1425 5.00743 9.86942 4.48235 9.44125 4.10152C9.01308 3.72068 8.45974 3.51072 7.88671 3.51166H5.86838C4.55005 3.51166 3.45338 4.60833 3.53505 5.92666C4.15338 15.89 12.1217 23.8467 22.0734 24.465C23.3917 24.5467 24.4884 23.45 24.4884 22.1317V20.1133C24.5 18.935 23.6134 17.9433 22.435 17.8033Z" fill="white"/>
</svg>
