<svg width="24" height="24" viewBox="0 0 24 24" fill="none" xmlns="http://www.w3.org/2000/svg">
<g opacity="0.5">
<mask id="path-1-inside-1_363_4970" fill="currentColor">
<path d="M11.0001 1.40002C9.72706 1.40002 8.50616 1.90574 7.60599 2.80591C6.70581 3.70609 6.2001 4.92699 6.2001 6.20002C6.2001 7.47306 6.70581 8.69396 7.60599 9.59414C8.50616 10.4943 9.72706 11 11.0001 11C12.2731 11 13.494 10.4943 14.3942 9.59414C15.2944 8.69396 15.8001 7.47306 15.8001 6.20002C15.8001 4.92699 15.2944 3.70609 14.3942 2.80591C13.494 1.90574 12.2731 1.40002 11.0001 1.40002ZM7.4001 6.20002C7.4001 5.24525 7.77938 4.32957 8.45451 3.65444C9.12964 2.97931 10.0453 2.60002 11.0001 2.60002C11.9549 2.60002 12.8706 2.97931 13.5457 3.65444C14.2208 4.32957 14.6001 5.24525 14.6001 6.20002C14.6001 7.1548 14.2208 8.07048 13.5457 8.74561C12.8706 9.42074 11.9549 9.80002 11.0001 9.80002C10.0453 9.80002 9.12964 9.42074 8.45451 8.74561C7.77938 8.07048 7.4001 7.1548 7.4001 6.20002ZM5.0109 12.2C4.69482 12.1986 4.38157 12.2596 4.08914 12.3796C3.79671 12.4996 3.53086 12.6761 3.30686 12.8991C3.08285 13.1221 2.9051 13.3872 2.78381 13.6791C2.66253 13.971 2.60009 14.2839 2.6001 14.6C2.6001 16.6292 3.5997 18.1592 5.1621 19.1564C6.4221 19.9592 8.0397 20.4152 9.8061 20.5544C9.8173 20.432 9.8381 20.3084 9.8685 20.1836L10.0725 19.37C8.3769 19.2584 6.8973 18.8396 5.8077 18.1436C4.5477 17.3396 3.8001 16.172 3.8001 14.6C3.8001 13.9364 4.3377 13.4 5.0109 13.4H14.5317L15.7317 12.2H5.0109ZM12.1749 17.4524L17.9709 11.6564C18.392 11.2355 18.963 10.9991 19.5583 10.9992C20.1537 10.9994 20.7246 11.236 21.1455 11.657C21.5664 12.0781 21.8028 12.6491 21.8027 13.2444C21.8026 13.8398 21.566 14.4107 21.1449 14.8316L15.3489 20.6264C15.0111 20.9641 14.5881 21.2038 14.1249 21.32L12.3273 21.7688C12.1486 21.8134 11.9613 21.8109 11.7838 21.7617C11.6063 21.7125 11.4445 21.6183 11.3142 21.4881C11.1839 21.3579 11.0895 21.1962 11.0401 21.0187C10.9907 20.8412 10.9881 20.654 11.0325 20.4752L11.4825 18.6776C11.5987 18.2144 11.8384 17.7914 12.1761 17.4536"/>
</mask>
<path d="M11.0001 1.40002V0.400024V1.40002ZM6.2001 6.20002H5.2001H6.2001ZM11.0001 11V12V11ZM15.8001 6.20002H16.8001H15.8001ZM11.0001 2.60002V1.60002V2.60002ZM14.6001 6.20002H15.6001H14.6001ZM5.0109 12.2L5.0064 13.2H5.0109V12.2ZM2.6001 14.6H3.6001V14.6L2.6001 14.6ZM5.1621 19.1564L4.62409 19.9994L4.62475 19.9998L5.1621 19.1564ZM9.8061 20.5544L9.72754 21.5513L10.712 21.6289L10.8019 20.6455L9.8061 20.5544ZM9.8685 20.1836L8.8985 19.9404L8.89691 19.947L9.8685 20.1836ZM10.0725 19.37L11.0425 19.6132L11.3339 18.4509L10.1382 18.3722L10.0725 19.37ZM5.8077 18.1436L6.34601 17.3009L6.34561 17.3006L5.8077 18.1436ZM14.5317 13.4V14.4H14.9459L15.2388 14.1071L14.5317 13.4ZM15.7317 12.2L16.4388 12.9071L18.1459 11.2H15.7317V12.2ZM17.9709 11.6564L17.2639 10.9492L17.2638 10.9493L17.9709 11.6564ZM21.1449 14.8316L20.4379 14.1244L20.4379 14.1244L21.1449 14.8316ZM15.3489 20.6264L16.0559 21.3336L16.0559 21.3336L15.3489 20.6264ZM14.1249 21.32L14.3671 22.2902L14.3683 22.29L14.1249 21.32ZM12.3273 21.7688L12.5691 22.7391L12.5695 22.739L12.3273 21.7688ZM11.0325 20.4752L10.0624 20.2324L10.062 20.2343L11.0325 20.4752ZM11.4825 18.6776L10.5126 18.4343L10.5124 18.4348L11.4825 18.6776ZM11.0001 0.400024C9.46184 0.400024 7.98659 1.01109 6.89888 2.09881L8.31309 3.51302C9.02573 2.80038 9.99228 2.40002 11.0001 2.40002V0.400024ZM6.89888 2.09881C5.81117 3.18652 5.2001 4.66177 5.2001 6.20002H7.2001C7.2001 5.1922 7.60045 4.22566 8.31309 3.51302L6.89888 2.09881ZM5.2001 6.20002C5.2001 7.73828 5.81117 9.21353 6.89888 10.3012L8.31309 8.88703C7.60045 8.17439 7.2001 7.20785 7.2001 6.20002H5.2001ZM6.89888 10.3012C7.98659 11.389 9.46184 12 11.0001 12V10C9.99228 10 9.02573 9.59967 8.31309 8.88703L6.89888 10.3012ZM11.0001 12C12.5384 12 14.0136 11.389 15.1013 10.3012L13.6871 8.88703C12.9745 9.59967 12.0079 10 11.0001 10V12ZM15.1013 10.3012C16.189 9.21353 16.8001 7.73828 16.8001 6.20002H14.8001C14.8001 7.20785 14.3997 8.17439 13.6871 8.88703L15.1013 10.3012ZM16.8001 6.20002C16.8001 4.66177 16.189 3.18652 15.1013 2.09881L13.6871 3.51302C14.3997 4.22566 14.8001 5.1922 14.8001 6.20002H16.8001ZM15.1013 2.09881C14.0136 1.01109 12.5384 0.400024 11.0001 0.400024V2.40002C12.0079 2.40002 12.9745 2.80038 13.6871 3.51302L15.1013 2.09881ZM8.4001 6.20002C8.4001 5.51046 8.67403 4.84914 9.16162 4.36155L7.74741 2.94733C6.88474 3.81 6.4001 4.98003 6.4001 6.20002H8.4001ZM9.16162 4.36155C9.64921 3.87395 10.3105 3.60002 11.0001 3.60002V1.60002C9.7801 1.60002 8.61007 2.08467 7.74741 2.94733L9.16162 4.36155ZM11.0001 3.60002C11.6897 3.60002 12.351 3.87395 12.8386 4.36155L14.2528 2.94733C13.3901 2.08467 12.2201 1.60002 11.0001 1.60002V3.60002ZM12.8386 4.36155C13.3262 4.84914 13.6001 5.51046 13.6001 6.20002H15.6001C15.6001 4.98003 15.1155 3.81 14.2528 2.94733L12.8386 4.36155ZM13.6001 6.20002C13.6001 6.88959 13.3262 7.55091 12.8386 8.0385L14.2528 9.45272C15.1155 8.59005 15.6001 7.42002 15.6001 6.20002H13.6001ZM12.8386 8.0385C12.351 8.5261 11.6897 8.80002 11.0001 8.80002V10.8C12.2201 10.8 13.3901 10.3154 14.2528 9.45272L12.8386 8.0385ZM11.0001 8.80002C10.3105 8.80002 9.64921 8.5261 9.16162 8.0385L7.74741 9.45272C8.61007 10.3154 9.7801 10.8 11.0001 10.8V8.80002ZM9.16162 8.0385C8.67403 7.55091 8.4001 6.88959 8.4001 6.20002H6.4001C6.4001 7.42002 6.88474 8.59005 7.74741 9.45272L9.16162 8.0385ZM5.0154 11.2C4.56762 11.198 4.12385 11.2845 3.70958 11.4544L4.46871 13.3048C4.63929 13.2348 4.82202 13.1992 5.0064 13.2L5.0154 11.2ZM3.70958 11.4544C3.2953 11.6244 2.91868 11.8745 2.60134 12.1904L4.01237 13.6078C4.14304 13.4777 4.29812 13.3748 4.46871 13.3048L3.70958 11.4544ZM2.60134 12.1904C2.284 12.5064 2.03218 12.8819 1.86036 13.2954L3.70727 14.0628C3.77802 13.8925 3.8817 13.7379 4.01237 13.6078L2.60134 12.1904ZM1.86036 13.2954C1.68854 13.7089 1.60009 14.1523 1.6001 14.6L3.6001 14.6C3.6001 14.4156 3.63652 14.2331 3.70727 14.0628L1.86036 13.2954ZM1.6001 14.6C1.6001 17.0122 2.8108 18.842 4.62409 19.9994L5.7001 18.3135C4.38859 17.4764 3.6001 16.2462 3.6001 14.6H1.6001ZM4.62475 19.9998C6.06061 20.9146 7.8494 21.4033 9.72754 21.5513L9.88466 19.5575C8.23 19.4271 6.78358 19.0038 5.69944 18.3131L4.62475 19.9998ZM10.8019 20.6455C10.8085 20.5743 10.8208 20.4994 10.8401 20.4203L8.89691 19.947C8.85537 20.1175 8.82614 20.2897 8.81026 20.4633L10.8019 20.6455ZM10.8385 20.4268L11.0425 19.6132L9.10252 19.1268L8.89852 19.9404L10.8385 20.4268ZM10.1382 18.3722C8.55439 18.2679 7.25269 17.88 6.34601 17.3009L5.26938 18.9864C6.54191 19.7992 8.1994 20.2489 10.0068 20.3679L10.1382 18.3722ZM6.34561 17.3006C5.33698 16.657 4.8001 15.7894 4.8001 14.6H2.8001C2.8001 16.5546 3.75842 18.0222 5.26978 18.9866L6.34561 17.3006ZM4.8001 14.6C4.8001 14.4952 4.88348 14.4 5.0109 14.4V12.4C3.79192 12.4 2.8001 13.3777 2.8001 14.6H4.8001ZM5.0109 14.4H14.5317V12.4H5.0109V14.4ZM15.2388 14.1071L16.4388 12.9071L15.0246 11.4929L13.8246 12.6929L15.2388 14.1071ZM15.7317 11.2H5.0109V13.2H15.7317V11.2ZM12.882 18.1595L18.678 12.3635L17.2638 10.9493L11.4678 16.7453L12.882 18.1595ZM18.6779 12.3637C18.9114 12.1303 19.228 11.9992 19.5581 11.9992L19.5585 9.99924C18.6979 9.99908 17.8726 10.3408 17.2639 10.9492L18.6779 12.3637ZM19.5581 11.9992C19.8883 11.9993 20.2049 12.1305 20.4383 12.364L21.8527 10.9501C21.2443 10.3414 20.4191 9.99941 19.5585 9.99924L19.5581 11.9992ZM20.4383 12.364C20.6717 12.5975 20.8027 12.9141 20.8027 13.2443L22.8027 13.2446C22.8028 12.3841 22.4611 11.5587 21.8527 10.9501L20.4383 12.364ZM20.8027 13.2443C20.8026 13.5744 20.6714 13.891 20.4379 14.1244L21.8519 15.5389C22.4605 14.9305 22.8025 14.1052 22.8027 13.2446L20.8027 13.2443ZM20.4379 14.1244L14.6419 19.9192L16.0559 21.3336L21.8519 15.5388L20.4379 14.1244ZM14.6419 19.9192C14.4321 20.129 14.1693 20.2779 13.8815 20.3501L14.3683 22.29C15.007 22.1297 15.5902 21.7992 16.0559 21.3336L14.6419 19.9192ZM13.8827 20.3498L12.0851 20.7986L12.5695 22.739L14.3671 22.2902L13.8827 20.3498ZM12.0855 20.7985C12.0741 20.8013 12.0622 20.8012 12.0509 20.7981L11.5167 22.7254C11.8605 22.8207 12.223 22.8254 12.5691 22.7391L12.0855 20.7985ZM12.0509 20.7981C12.0396 20.7949 12.0293 20.7889 12.021 20.7806L10.6074 22.1955C10.8598 22.4476 11.173 22.6301 11.5167 22.7254L12.0509 20.7981ZM12.021 20.7806C12.0127 20.7723 12.0067 20.762 12.0035 20.7507L10.0767 21.2867C10.1722 21.6303 10.3551 21.9434 10.6074 22.1955L12.021 20.7806ZM12.0035 20.7507C12.0004 20.7394 12.0002 20.7275 12.003 20.7161L10.062 20.2343C9.97602 20.5805 9.98109 20.943 10.0767 21.2867L12.0035 20.7507ZM12.0026 20.7181L12.4526 18.9205L10.5124 18.4348L10.0624 20.2324L12.0026 20.7181ZM12.4524 18.921C12.5246 18.6332 12.6735 18.3704 12.8833 18.1606L11.4689 16.7466C11.0033 17.2123 10.6728 17.7956 10.5126 18.4343L12.4524 18.921Z" fill="currentColor" mask="url(#path-1-inside-1_363_4970)"/>
</g>
</svg>
