<svg width="24" height="24" viewBox="0 0 24 24" fill="none" xmlns="http://www.w3.org/2000/svg">
<g opacity="0.6">
<path d="M12.824 21.5041L5.75295 21.505C5.75293 21.505 5.75291 21.505 5.75289 21.505C5.28878 21.505 4.84369 21.3206 4.51552 20.9924C4.18733 20.6642 4.00295 20.2191 4.00295 19.755V19.755L4.00195 5.75C4.00195 5.74999 4.00195 5.74998 4.00195 5.74996C4.00196 5.28585 4.18634 4.84074 4.51452 4.51256C4.84271 4.18438 5.28782 4 5.75195 4L5.75262 4L6.49962 3.999L6.99895 3.99833V3.499V2.75011C6.99895 2.75008 6.99895 2.75004 6.99895 2.75C6.99899 2.68958 7.02092 2.63121 7.06067 2.5857C7.09776 2.54323 7.14804 2.51465 7.20325 2.50438L7.26249 2.50032C7.31839 2.50313 7.37188 2.52464 7.41424 2.56159C7.45664 2.59857 7.48523 2.64867 7.4956 2.70372L7.49993 2.7668L7.49895 3.49833L7.49828 3.999H7.99895H11H11.5V3.499V2.75011C11.5 2.75008 11.5 2.75004 11.5 2.75C11.5 2.68958 11.5219 2.63121 11.5617 2.5857C11.5988 2.5432 11.6491 2.5146 11.7044 2.50436L11.763 2.50029C11.819 2.50301 11.8727 2.52449 11.9151 2.56148C11.9576 2.59847 11.9862 2.64862 11.9966 2.70372L12.0009 2.7668L12 3.49833L11.9993 3.999H12.5H15.498H15.998V3.499V2.75011C15.998 2.75008 15.998 2.75004 15.998 2.75C15.998 2.68958 16.0199 2.63121 16.0597 2.5857C16.0967 2.54327 16.147 2.51469 16.2021 2.5044L16.2624 2.50031C16.3183 2.5031 16.3718 2.52461 16.4142 2.56159C16.4566 2.59856 16.4852 2.64867 16.4956 2.70372L16.4999 2.7668L16.499 3.49833L16.4983 3.999H16.999H17.749C18.2131 3.999 18.6582 4.18338 18.9864 4.51156C19.3146 4.83975 19.499 5.28487 19.499 5.749V10.6261C19.3349 10.5839 19.1682 10.5521 18.9999 10.531L18.999 5.75C18.999 5.74997 18.999 5.74994 18.999 5.74991C18.9989 5.58564 18.9666 5.423 18.9036 5.27126C18.8407 5.11949 18.7485 4.98162 18.6322 4.86553C18.516 4.74943 18.378 4.65739 18.2262 4.59467C18.0744 4.532 17.9118 4.49984 17.7477 4.5M12.824 21.5041L17.7477 4.5M12.824 21.5041C12.7555 21.3401 12.6981 21.1731 12.6517 21.004H5.75295C5.06326 21.004 4.50297 20.4456 4.50295 19.754L12.824 21.5041ZM17.7477 4.5H17.748V5L17.7473 4.5C17.7474 4.5 17.7476 4.5 17.7477 4.5ZM17.7477 4.5H5.74195V4.49996L5.73529 4.50005C5.40666 4.50443 5.09299 4.63806 4.86216 4.872C4.63133 5.10595 4.50193 5.42139 4.50195 5.75004C4.50195 5.75004 4.50195 5.75004 4.50195 5.75005L4.50295 19.754L17.7477 4.5ZM7.26709 16.5L7.20377 16.5043C7.1459 16.5153 7.09359 16.5463 7.05625 16.5922C7.01628 16.6414 6.99645 16.7038 7.00076 16.767C7.00508 16.8302 7.03322 16.8894 7.07951 16.9327C7.12576 16.9759 7.18667 16.9999 7.24995 17L7.26709 16.5ZM7.26709 16.5H11.2478H7.26709ZM11.4184 16.5673C11.3721 16.5241 11.3112 16.5001 11.248 16.5L11.4184 16.5673ZM11.4184 16.5673C11.4647 16.6106 11.4928 16.6698 11.4971 16.733M11.4184 16.5673L11.4971 16.733M11.4971 16.733C11.5015 16.7962 11.4816 16.8586 11.4417 16.9078M11.4971 16.733L11.4417 16.9078M11.4417 16.9078C11.4043 16.9537 11.352 16.9847 11.2941 16.9957M11.4417 16.9078L11.2941 16.9957M11.2941 16.9957L11.2308 17H7.25011L11.2941 16.9957ZM7.26709 8.5H16.2478H7.26709ZM7.26709 8.5L7.20377 8.50435C7.1459 8.51528 7.09359 8.54634 7.05625 8.59223C7.01628 8.64137 6.99645 8.70385 7.00076 8.76704C7.00508 8.83023 7.03323 8.88943 7.07951 8.93268C7.12576 8.97588 7.18667 8.99994 7.24995 9L7.26709 8.5ZM16.4184 8.56733C16.3722 8.52412 16.3112 8.50006 16.248 8.5L16.4184 8.56733ZM16.4184 8.56733C16.4647 8.61057 16.4928 8.66976 16.4971 8.73296M16.4184 8.56733L16.4971 8.73296M16.4971 8.73296C16.5015 8.79615 16.4816 8.85863 16.4417 8.90777M16.4971 8.73296L16.4417 8.90777M16.4417 8.90777C16.4043 8.95366 16.352 8.98472 16.2941 8.99565M16.4417 8.90777L16.2941 8.99565M16.2941 8.99565L16.2308 9H7.25011L16.2941 8.99565ZM19.9142 15.9142C19.5391 16.2893 19.0304 16.5 18.5 16.5C17.9695 16.5 17.4608 16.2893 17.0857 15.9142C16.7107 15.5391 16.5 15.0304 16.5 14.5C16.5 13.9696 16.7107 13.4609 17.0857 13.0858C17.4608 12.7107 17.9695 12.5 18.5 12.5C19.0304 12.5 19.5391 12.7107 19.9142 13.0858C20.2892 13.4609 20.5 13.9696 20.5 14.5C20.5 15.0304 20.2892 15.5391 19.9142 15.9142ZM22.5 19.875C22.5 20.5082 22.2419 21.1446 21.6402 21.6327C21.0315 22.1265 20.03 22.5 18.5 22.5C16.9694 22.5 15.968 22.1278 15.3595 21.6348C14.7582 21.1476 14.5 20.5116 14.5 19.875V19.772C14.5 19.0693 15.0689 18.5 15.773 18.5H21.227C21.9302 18.5 22.5 19.0695 22.5 19.772V19.875ZM7.07318 12.5732C7.12006 12.5263 7.18365 12.5 7.24995 12.5H13.25C13.3163 12.5 13.3798 12.5263 13.4267 12.5732C13.4736 12.6201 13.5 12.6837 13.5 12.75C13.5 12.8163 13.4736 12.8799 13.4267 12.9268C13.3798 12.9737 13.3163 13 13.25 13H7.24995C7.18365 13 7.12006 12.9737 7.07318 12.9268C7.02629 12.8799 6.99995 12.8163 6.99995 12.75C6.99995 12.6837 7.02629 12.6201 7.07318 12.5732Z" stroke="currentColor"/>
</g>
</svg>
