<svg width="24" height="24" viewBox="0 0 24 24" fill="none" xmlns="http://www.w3.org/2000/svg">
<g opacity="0.6">
<rect x="0.5" y="0.5" width="23" height="23" rx="2.5" stroke="currentColor"/>
<path d="M12.2901 8.27778C12.918 8.27778 13.4276 8.75689 13.4276 9.34722V12.2494C13.4276 12.9789 13.1194 13.6785 12.5707 14.1944C12.022 14.7102 11.2779 15 10.5019 15C9.72602 15 8.98187 14.7102 8.4332 14.1944C7.88454 13.6785 7.5763 12.9789 7.5763 12.2494V9.34722C7.5763 8.75689 8.08525 8.27778 8.7138 8.27778H12.2901ZM12.2901 9.19444H8.7138C8.6707 9.19444 8.62937 9.21054 8.59889 9.23919C8.56842 9.26784 8.5513 9.3067 8.5513 9.34722V12.2494C8.5513 12.7358 8.75681 13.2023 9.12263 13.5462C9.48845 13.8901 9.98461 14.0833 10.5019 14.0833C11.0193 14.0833 11.5155 13.8901 11.8813 13.5462C12.2471 13.2023 12.4526 12.7358 12.4526 12.2494V9.34722C12.4526 9.3067 12.4355 9.26784 12.405 9.23919C12.3745 9.21054 12.3332 9.19444 12.2901 9.19444ZM5.1375 8.27778H7.33515C7.1059 8.5382 6.96586 8.85777 6.93345 9.19444H5.1375C5.0944 9.19444 5.05307 9.21054 5.0226 9.23919C4.99212 9.26784 4.975 9.3067 4.975 9.34722V11.3327C4.97483 11.5637 5.03037 11.7917 5.13743 11.9996C5.24449 12.2074 5.40029 12.3898 5.59312 12.5329C5.78594 12.676 6.01077 12.7762 6.25069 12.8258C6.49061 12.8755 6.73938 12.8733 6.9783 12.8196C7.03355 13.1276 7.1343 13.4215 7.27275 13.6947C7.05782 13.7497 6.83357 13.7774 6.6 13.7778C6.25851 13.7778 5.92036 13.7145 5.60487 13.5916C5.28938 13.4688 5.00273 13.2887 4.76129 13.0616C4.51985 12.8345 4.32835 12.565 4.19773 12.2684C4.0671 11.9717 3.99991 11.6538 4 11.3327V9.34722C4 8.75689 4.5096 8.27778 5.1375 8.27778ZM13.6687 8.27778H15.8625C16.4904 8.27778 17 8.75689 17 9.34722V11.3333C17.0001 11.708 16.9085 12.0778 16.7325 12.4139C16.5564 12.7501 16.3004 13.0437 15.9844 13.272C15.6684 13.5003 15.3008 13.6573 14.91 13.7308C14.5192 13.8043 14.1156 13.7924 13.7305 13.6959C13.8696 13.4221 13.9703 13.1282 14.0262 12.8202C14.1463 12.8471 14.2709 12.8607 14.4 12.8611C14.831 12.8611 15.2443 12.7001 15.549 12.4136C15.8538 12.1271 16.025 11.7385 16.025 11.3333V9.34722C16.025 9.3067 16.0079 9.26784 15.9774 9.23919C15.9469 9.21054 15.9056 9.19444 15.8625 9.19444H14.0704C14.038 8.85777 13.898 8.5382 13.6687 8.27778ZM10.5 4C11.0172 4 11.5132 4.19315 11.8789 4.53697C12.2446 4.88079 12.45 5.3471 12.45 5.83333C12.45 6.31956 12.2446 6.78588 11.8789 7.1297C11.5132 7.47351 11.0172 7.66667 10.5 7.66667C9.98283 7.66667 9.48684 7.47351 9.12114 7.1297C8.75545 6.78588 8.55 6.31956 8.55 5.83333C8.55 5.3471 8.75545 4.88079 9.12114 4.53697C9.48684 4.19315 9.98283 4 10.5 4ZM14.725 4.61111C15.156 4.61111 15.5693 4.77207 15.874 5.05859C16.1788 5.3451 16.35 5.7337 16.35 6.13889C16.35 6.54408 16.1788 6.93268 15.874 7.21919C15.5693 7.5057 15.156 7.66667 14.725 7.66667C14.294 7.66667 13.8807 7.5057 13.576 7.21919C13.2712 6.93268 13.1 6.54408 13.1 6.13889C13.1 5.7337 13.2712 5.3451 13.576 5.05859C13.8807 4.77207 14.294 4.61111 14.725 4.61111ZM6.275 4.61111C6.70598 4.61111 7.1193 4.77207 7.42405 5.05859C7.7288 5.3451 7.9 5.7337 7.9 6.13889C7.9 6.54408 7.7288 6.93268 7.42405 7.21919C7.1193 7.5057 6.70598 7.66667 6.275 7.66667C5.84402 7.66667 5.4307 7.5057 5.12595 7.21919C4.8212 6.93268 4.65 6.54408 4.65 6.13889C4.65 5.7337 4.8212 5.3451 5.12595 5.05859C5.4307 4.77207 5.84402 4.61111 6.275 4.61111ZM10.5 4.91667C10.2414 4.91667 9.99342 5.01324 9.81057 5.18515C9.62772 5.35706 9.525 5.59022 9.525 5.83333C9.525 6.07645 9.62772 6.30961 9.81057 6.48151C9.99342 6.65342 10.2414 6.75 10.5 6.75C10.7586 6.75 11.0066 6.65342 11.1894 6.48151C11.3723 6.30961 11.475 6.07645 11.475 5.83333C11.475 5.59022 11.3723 5.35706 11.1894 5.18515C11.0066 5.01324 10.7586 4.91667 10.5 4.91667ZM14.725 5.52778C14.5526 5.52778 14.3873 5.59216 14.2654 5.70677C14.1435 5.82137 14.075 5.97681 14.075 6.13889C14.075 6.30097 14.1435 6.4564 14.2654 6.57101C14.3873 6.68562 14.5526 6.75 14.725 6.75C14.8974 6.75 15.0627 6.68562 15.1846 6.57101C15.3065 6.4564 15.375 6.30097 15.375 6.13889C15.375 5.97681 15.3065 5.82137 15.1846 5.70677C15.0627 5.59216 14.8974 5.52778 14.725 5.52778ZM6.275 5.52778C6.10261 5.52778 5.93728 5.59216 5.81538 5.70677C5.69348 5.82137 5.625 5.97681 5.625 6.13889C5.625 6.30097 5.69348 6.4564 5.81538 6.57101C5.93728 6.68562 6.10261 6.75 6.275 6.75C6.44739 6.75 6.61272 6.68562 6.73462 6.57101C6.85652 6.4564 6.925 6.30097 6.925 6.13889C6.925 5.97681 6.85652 5.82137 6.73462 5.70677C6.61272 5.59216 6.44739 5.52778 6.275 5.52778Z" fill="currentColor"/>
<g clip-path="url(#clip0_363_4950)">
<path d="M21.9984 16.6888C22.0034 16.6313 21.9964 16.5733 21.9778 16.5186C21.9592 16.464 21.9295 16.4138 21.8905 16.3712C21.8515 16.3286 21.804 16.2946 21.7512 16.2714C21.6983 16.2481 21.6412 16.2361 21.5834 16.2361H20.7878C20.6773 16.2361 20.5713 16.28 20.4932 16.3581C20.415 16.4363 20.3711 16.5422 20.3711 16.6527V20.6111C20.3711 20.7216 20.415 20.8276 20.4932 20.9057C20.5713 20.9839 20.6773 21.0277 20.7878 21.0277H21.2391C21.3433 21.0278 21.4439 20.9887 21.5207 20.9182C21.5976 20.8478 21.6453 20.751 21.6543 20.6471L21.9984 16.6888ZM19.1211 16.5225C19.1211 16.3484 19.0128 16.1925 18.8555 16.1184C18.512 15.9563 17.9268 15.6307 17.6628 15.1905C17.3226 14.623 17.2584 13.5977 17.248 13.363C17.2466 13.33 17.2474 13.2971 17.243 13.2646C17.1866 12.8577 16.4014 13.333 16.1003 13.8355C15.9368 14.108 15.9159 14.4661 15.933 14.7459C15.9516 15.045 16.0393 15.334 16.1253 15.6211L16.3086 16.233H14.0468C13.9824 16.233 13.9189 16.2479 13.8612 16.2765C13.8036 16.3052 13.7534 16.3468 13.7145 16.3981C13.6757 16.4495 13.6492 16.5091 13.6373 16.5724C13.6254 16.6356 13.6283 16.7008 13.6457 16.7627L14.7645 20.7244C14.7892 20.8118 14.8417 20.8887 14.9142 20.9435C14.9866 20.9982 15.0749 21.0278 15.1657 21.0277H18.7045C18.815 21.0277 18.921 20.9839 18.9991 20.9057C19.0772 20.8276 19.1211 20.7216 19.1211 20.6111V16.5225Z" stroke="currentColor" stroke-width="0.8" stroke-linecap="round" stroke-linejoin="round"/>
</g>
</g>
<defs>
<clipPath id="clip0_363_4950">
<rect width="10" height="10" fill="currentColor" transform="matrix(-1 0 0 1 22 12)"/>
</clipPath>
</defs>
</svg>
