<svg width="24" height="24" viewBox="0 0 24 24" fill="none" xmlns="http://www.w3.org/2000/svg">
<g opacity="0.5">
<rect x="0.5" y="0.5" width="23" height="23" rx="3.5" stroke="currentColor"/>
<path d="M20 10.2729C20.0005 10.1172 19.97 9.963 19.9104 9.81918C19.8508 9.67537 19.7631 9.54484 19.6526 9.43519L14.5652 4.34722C14.4551 4.23714 14.3244 4.14982 14.1806 4.09024C14.0368 4.03066 13.8827 4 13.727 4C13.5714 4 13.4172 4.03066 13.2734 4.09024C13.1296 4.14982 12.9989 4.23714 12.8889 4.34722L10.7829 6.45307L6.48664 8.0656C6.29139 8.13842 6.11868 8.26125 5.98582 8.42179C5.85296 8.58234 5.76461 8.77496 5.72961 8.98039L4.00812 19.3097C3.99392 19.3946 3.99838 19.4815 4.02121 19.5646C4.04404 19.6476 4.08468 19.7246 4.14031 19.7903C4.19593 19.856 4.26521 19.9088 4.34331 19.945C4.42142 19.9812 4.50648 20 4.59257 20C4.62532 19.9999 4.65802 19.9971 4.69035 19.9919L15.0192 18.2704C15.2244 18.2362 15.417 18.1486 15.5776 18.0163C15.7382 17.8841 15.8611 17.7119 15.9341 17.5171L17.5467 13.221L19.6526 11.1114C19.7632 11.0017 19.8508 10.871 19.9105 10.7271C19.9701 10.5831 20.0005 10.4287 20 10.2729ZM14.8244 17.1016L6.31998 18.5186L9.82887 15.0098C10.2671 15.2467 10.776 15.3179 11.2624 15.2104C11.7489 15.1029 12.1804 14.824 12.4781 14.4245C12.7757 14.0251 12.9197 13.5319 12.8836 13.035C12.8476 12.5382 12.6339 12.0709 12.2816 11.7187C11.9293 11.3664 11.4621 11.1527 10.9652 11.1167C10.4683 11.0806 9.97509 11.2246 9.57564 11.5222C9.17619 11.8199 8.89723 12.2514 8.78976 12.7378C8.68229 13.2242 8.75349 13.7331 8.99035 14.1713L5.48146 17.6816L6.8985 9.17519L10.9629 7.65154L16.3481 13.0373L14.8244 17.1016ZM9.92591 13.1854C9.92591 13.0096 9.97804 12.8378 10.0757 12.6916C10.1734 12.5454 10.3122 12.4315 10.4746 12.3642C10.6371 12.297 10.8158 12.2793 10.9882 12.3136C11.1606 12.3479 11.319 12.4326 11.4433 12.5569C11.5676 12.6812 11.6523 12.8396 11.6866 13.012C11.7209 13.1844 11.7033 13.3632 11.636 13.5256C11.5687 13.688 11.4548 13.8268 11.3086 13.9245C11.1625 14.0222 10.9906 14.0743 10.8148 14.0743C10.579 14.0743 10.353 13.9806 10.1863 13.8139C10.0196 13.6472 9.92591 13.4212 9.92591 13.1854ZM17.037 12.0506L11.9489 6.96342L13.7267 5.18571L18.8148 10.2729L17.037 12.0506Z" fill="currentColor"/>
</g>
</svg>
